<?xml version="1.0" standalone="no"?>
<!DOCTYPE svg PUBLIC "-//W3C//DTD SVG 20010904//EN"
 "http://www.w3.org/TR/2001/REC-SVG-20010904/DTD/svg10.dtd">
<svg version="1.0" xmlns="http://www.w3.org/2000/svg"
 width="1024.000000pt" height="1024.000000pt" viewBox="0 0 1024.000000 1024.000000"
 preserveAspectRatio="xMidYMid meet">

<g transform="translate(0.000000,1024.000000) scale(0.100000,-0.100000)"
fill="#000000" stroke="none">
<path d="M4890 8800 c-8 -5 -45 -10 -82 -10 -37 0 -70 -4 -73 -10 -3 -5 -30
-10 -59 -10 -28 0 -56 -4 -61 -9 -6 -5 -28 -11 -50 -14 -156 -22 -347 -73
-590 -160 -148 -53 -177 -66 -169 -79 5 -7 2 -8 -5 -3 -12 7 -102 -32 -109
-47 -2 -5 -12 -8 -22 -8 -10 0 -20 -4 -22 -9 -1 -5 -65 -39 -140 -76 -76 -37
-141 -71 -144 -76 -3 -6 45 15 107 46 129 65 274 123 373 150 54 15 65 21 50
27 -15 7 -14 7 6 4 31 -6 191 28 170 36 -8 3 5 6 30 6 25 0 133 3 241 7 107 4
213 4 235 0 36 -8 31 -10 -61 -21 -130 -15 -225 -34 -225 -44 0 -8 59 -5 91 5
53 17 268 45 342 45 163 0 418 -40 436 -69 4 -5 55 -15 114 -21 166 -17 357
-71 511 -146 38 -19 71 -36 74 -38 2 -3 -31 -102 -74 -220 -57 -159 -82 -216
-93 -215 -9 0 -50 6 -91 14 -104 20 -558 14 -685 -9 -112 -20 -115 -20 -115 2
0 9 -22 63 -50 120 -52 109 -78 133 -65 60 4 -24 8 -64 9 -90 1 -31 7 -52 18
-60 9 -7 20 -25 23 -39 6 -25 4 -27 -57 -38 -81 -16 -226 -63 -352 -113 -314
-125 -587 -301 -859 -553 -135 -125 -157 -142 -137 -105 11 21 10 22 -8 18
-12 -3 -22 -2 -24 3 -2 6 -14 11 -28 13 -14 2 -36 8 -50 13 -14 6 -42 13 -64
17 -21 4 -35 10 -32 13 6 6 102 -11 184 -34 29 -8 58 -13 65 -10 15 5 -141 54
-200 63 -24 4 -43 12 -43 19 0 19 88 213 123 272 23 38 38 53 60 57 60 12 117
44 117 65 0 28 -28 27 -76 -1 l-36 -21 15 29 c24 46 147 202 218 275 120 124
226 202 402 298 42 23 77 44 77 47 0 9 -144 -69 -288 -155 -116 -69 -160 -90
-212 -100 -84 -17 -185 -51 -318 -108 -128 -54 -210 -100 -276 -156 -45 -37
-47 -38 -30 -11 10 16 30 45 44 64 44 58 46 66 10 37 -19 -16 -71 -56 -115
-90 -239 -184 -499 -483 -640 -735 -32 -56 -60 -101 -62 -98 -6 5 114 243 172
341 65 110 144 229 199 299 25 32 44 62 41 65 -2 4 12 25 32 46 l35 40 -32
-42 c-46 -62 -31 -52 30 20 30 34 42 51 27 38 -15 -14 -27 -22 -27 -19 0 9 24
51 48 86 13 17 20 32 15 32 -4 0 26 34 67 76 41 42 66 71 54 63 -12 -8 -66
-61 -120 -119 -54 -58 -90 -98 -79 -90 19 14 19 14 6 -2 -7 -10 -19 -18 -25
-19 -15 0 -253 -290 -255 -311 -1 -4 -29 -49 -63 -100 -102 -154 -265 -472
-309 -603 -7 -22 -17 -44 -21 -49 -4 -6 -8 -18 -8 -28 0 -10 -4 -26 -9 -36
-13 -26 -31 -86 -31 -105 0 -10 -4 -25 -9 -35 -5 -9 -15 -37 -22 -62 -7 -25
-16 -49 -19 -55 -4 -5 -10 -21 -13 -35 -3 -14 -11 -43 -17 -65 -18 -62 -36
-140 -55 -230 -4 -16 -10 -39 -15 -50 -20 -45 -44 -333 -44 -510 0 -201 30
-594 53 -705 17 -81 33 -164 38 -195 2 -16 8 -39 13 -50 4 -11 13 -40 20 -65
7 -25 16 -56 20 -70 4 -14 13 -45 21 -70 7 -25 16 -49 21 -55 4 -5 8 -17 8
-27 0 -10 4 -26 9 -36 9 -18 28 -63 41 -97 28 -72 126 -279 150 -315 9 -14 22
-41 29 -60 24 -64 35 -84 124 -219 127 -191 189 -269 317 -401 101 -104 134
-185 92 -223 -23 -21 -85 -22 -102 -2 -33 40 -122 59 -134 29 -3 -8 -10 -12
-16 -9 -6 3 -10 -4 -10 -17 0 -15 23 -44 69 -88 45 -42 77 -82 89 -111 11 -25
33 -61 49 -80 27 -31 43 -56 94 -147 11 -18 19 -41 19 -51 0 -11 5 -21 12 -23
6 -2 9 -10 6 -18 -3 -11 -7 -11 -18 2 -13 13 -16 12 -27 -10 -7 -13 -13 -35
-13 -48 0 -13 -4 -24 -8 -24 -10 0 -32 -45 -32 -65 0 -23 17 -18 59 16 26 21
52 31 80 33 l42 3 -73 -39 c-40 -22 -85 -41 -100 -42 -35 -3 -36 -4 -45 -57
-15 -96 -10 -123 31 -169 36 -40 38 -46 33 -89 -3 -25 0 -72 7 -104 10 -50 18
-63 64 -103 63 -55 77 -81 87 -154 5 -39 13 -60 28 -72 17 -13 22 -28 22 -65
0 -42 3 -48 22 -51 13 -2 36 6 53 18 40 28 81 34 187 25 l88 -7 45 -51 c80
-90 133 -137 159 -143 14 -3 47 -12 73 -21 57 -18 193 -46 343 -72 93 -17 132
-18 255 -12 182 10 269 1 358 -38 37 -17 90 -35 116 -41 75 -17 118 -38 161
-79 52 -50 75 -61 125 -61 84 0 134 -38 215 -162 38 -57 50 -69 85 -78 72 -19
100 0 187 123 61 85 65 89 140 107 32 7 79 30 120 59 74 52 295 172 358 194
22 8 65 26 95 40 77 36 155 66 225 88 33 10 92 39 130 64 l70 47 244 -4 243
-3 47 52 c25 28 56 54 69 58 13 4 48 -2 85 -14 49 -15 82 -19 162 -16 119 4
181 13 194 29 6 6 16 44 25 83 18 90 46 145 92 180 83 65 77 55 71 144 l-5 82
46 49 46 49 -14 52 c-7 29 -25 77 -41 107 -15 30 -33 74 -40 98 -7 24 -23 57
-36 74 -13 18 -23 36 -23 40 0 5 25 33 55 63 30 30 55 63 55 73 0 29 26 74 60
107 17 17 39 46 47 65 9 19 38 58 66 86 49 52 57 80 27 94 -8 4 -25 12 -37 18
-36 19 -66 14 -115 -17 -25 -16 -64 -32 -87 -36 l-41 -7 0 55 c0 53 2 56 70
133 108 122 321 390 329 417 2 6 18 32 34 57 40 58 107 177 196 347 33 63 80
167 100 223 7 19 17 45 22 58 5 12 13 32 18 45 13 32 27 75 41 127 7 25 16 55
21 68 5 13 9 34 9 47 0 13 5 27 10 30 6 3 10 16 10 27 0 12 4 35 9 52 11 34
21 75 46 181 9 39 21 88 27 110 10 41 26 365 29 605 2 169 -15 364 -50 560 -9
51 -17 85 -41 183 -6 20 -14 54 -20 75 -5 20 -13 57 -19 82 -12 58 -80 263
-119 360 -48 122 -121 292 -140 330 -47 91 -108 199 -134 237 -15 23 -28 45
-28 50 0 4 -17 31 -38 58 -21 28 -49 69 -62 91 -22 37 -61 86 -222 285 -93
113 -342 361 -432 428 -100 75 -301 211 -310 211 -4 0 -54 32 -112 70 -97 66
-182 113 -279 155 -22 9 -69 31 -105 47 -36 17 -76 35 -90 40 -14 6 -33 14
-42 19 -10 5 -27 9 -37 9 -11 0 -23 5 -26 10 -3 6 -15 10 -26 10 -10 0 -27 4
-37 9 -30 15 -66 28 -112 41 -25 6 -53 16 -62 21 -10 5 -27 9 -37 9 -11 0 -23
5 -26 10 -3 6 -19 10 -35 10 -16 0 -32 5 -35 10 -3 6 -28 10 -55 10 -27 0 -51
4 -54 9 -3 5 -29 11 -58 15 -29 3 -82 11 -118 16 -159 26 -242 32 -500 36
-173 3 -281 1 -290 -6z m-30 -24 c0 -11 -19 -15 -25 -6 -3 5 1 10 9 10 9 0 16
-2 16 -4z m85 -84 c-6 -7 -45 19 -45 29 0 5 11 2 24 -8 13 -10 23 -19 21 -21z
m651 16 c-9 -5 -23 -5 -32 0 -12 6 -7 9 16 9 23 0 28 -3 16 -9z m294 -8 c8 -5
11 -10 5 -10 -5 0 -17 5 -25 10 -8 5 -10 10 -5 10 6 0 17 -5 25 -10z m-900
-32 c0 -11 -78 -10 -84 1 -3 5 15 8 39 7 25 0 45 -4 45 -8z m-640 -13 c0 -8
-7 -15 -15 -15 -9 0 -12 6 -9 15 4 8 10 15 15 15 5 0 9 -7 9 -15z m243 -6
c-12 -4 -24 -12 -28 -18 -8 -14 -25 -14 -25 -1 0 13 53 40 64 32 5 -3 0 -9
-11 -13z m437 -4 c0 -8 6 -15 13 -15 8 0 7 -3 -3 -9 -19 -13 -29 -5 -27 19 1
23 17 27 17 5z m304 1 c-3 -8 -12 -17 -20 -20 -12 -4 -12 -2 -4 14 12 23 32
27 24 6z m99 -23 c-7 -2 -19 -2 -25 0 -7 3 -2 5 12 5 14 0 19 -2 13 -5z
m-1283 -23 c-28 -18 1 -24 33 -6 l32 17 -24 -20 c-13 -12 -29 -21 -36 -21 -7
0 -20 -3 -29 -6 -22 -9 -21 22 2 35 21 13 42 14 22 1z m2340 -230 c0 -5 -4
-10 -10 -10 -5 0 -10 5 -10 10 0 6 5 10 10 10 6 0 10 -4 10 -10z m-506 -175
c67 -47 79 -69 67 -113 -13 -43 -54 -136 -67 -149 -6 -6 -17 -25 -24 -42 -7
-17 -17 -31 -22 -31 -5 0 -16 -16 -24 -35 -16 -39 -7 -38 -114 -10 -53 14 -53
14 -5 135 42 104 95 264 95 286 0 22 17 14 94 -41z m369 -55 c11 0 29 7 39 17
20 18 25 4 6 -15 -25 -25 -96 -6 -128 34 -8 9 3 5 24 -10 21 -14 48 -26 59
-26z m1077 -292 c0 -12 -6 -9 -26 13 -19 22 -19 22 4 8 12 -8 22 -17 22 -21z
m-4117 -95 c-22 -27 -65 -85 -97 -130 -51 -73 -63 -84 -123 -112 -90 -42 -173
-93 -267 -163 -43 -32 -81 -57 -83 -54 -8 7 59 164 91 214 27 44 108 102 216
157 48 25 289 133 298 135 2 0 -14 -21 -35 -47z m-565 -370 c-28 -66 -40 -82
-80 -108 -25 -17 -66 -49 -92 -73 -51 -47 -62 -52 -45 -19 48 91 239 313 247
288 2 -6 -12 -45 -30 -88z m346 45 c-39 -77 -113 -273 -120 -319 -5 -31 -15
-47 -42 -67 -74 -56 -166 -150 -225 -230 l-62 -83 -3 88 c-3 99 17 245 47 344
19 59 27 70 83 116 104 84 304 203 341 203 4 0 -4 -23 -19 -52z m3770 27 c-4
-8 -20 -16 -38 -17 -45 -2 -50 -3 -63 -11 -8 -5 -13 -4 -13 2 0 6 3 12 8 12 4
1 22 3 40 5 19 2 41 8 50 14 22 12 22 12 16 -5z m62 -7 c3 -4 -1 -5 -10 -4 -8
1 -18 5 -22 8 -3 4 1 5 10 4 8 -1 18 -5 22 -8z m-1718 -14 c12 -4 22 -11 22
-16 0 -6 -7 -8 -15 -5 -8 4 -17 1 -21 -4 -3 -6 -15 -8 -26 -6 -31 8 -138 -97
-138 -135 0 -10 -4 -18 -9 -18 -5 0 -3 21 5 47 15 50 83 123 116 123 9 0 20 5
23 10 7 12 12 12 43 4z m1535 -18 c4 -10 0 -12 -15 -8 -16 4 -19 2 -13 -8 6
-10 4 -12 -9 -7 -10 4 -19 1 -22 -8 -4 -8 -10 -15 -16 -15 -12 0 -38 -26 -38
-38 0 -5 -9 -21 -21 -35 -11 -15 -19 -32 -18 -39 1 -7 0 -29 -1 -48 l-2 -35
-8 33 c-7 32 4 101 19 112 3 3 11 14 17 25 10 19 98 85 114 85 4 0 10 -6 13
-14z m-2516 -95 c14 -8 8 -10 -28 -9 -51 2 -132 -29 -125 -48 2 -6 -6 -22 -18
-36 -16 -16 -23 -35 -22 -60 1 -20 -2 -34 -6 -31 -5 2 -8 29 -8 60 0 45 3 54
15 49 8 -3 15 -1 15 4 0 6 -5 10 -10 10 -6 0 -5 8 2 20 7 11 18 20 25 20 7 0
13 4 13 10 0 24 110 33 147 11z m48 -21 c3 -6 -1 -7 -9 -4 -18 7 -21 14 -7 14
6 0 13 -4 16 -10z m-1598 -97 c-51 -158 -83 -373 -71 -471 6 -45 3 -57 -18
-90 -74 -110 -157 -275 -199 -394 -12 -35 -27 -67 -33 -73 -6 -5 -12 -26 -12
-45 -2 -47 -22 -96 -34 -84 -12 12 -72 153 -96 226 -12 36 -19 46 -25 37 -7
-11 -9 -9 -9 5 0 20 0 20 -15 0 -13 -17 -14 -17 -15 -2 0 9 5 20 10 23 6 4 8
11 4 16 -3 5 0 8 6 7 6 -2 27 34 47 80 20 45 41 81 47 79 6 -2 14 -23 18 -48
31 -190 41 -236 55 -263 21 -41 30 -16 9 27 -20 43 -33 105 -42 197 -7 85 -16
106 -43 115 -16 5 -18 11 -12 33 12 41 59 130 104 196 22 32 35 56 29 52 -7
-4 -35 -41 -64 -82 -56 -80 -71 -82 -43 -6 48 128 132 264 228 369 52 56 176
157 185 149 2 -3 -3 -26 -11 -53z m3463 32 c0 -11 -82 -55 -102 -55 -16 1 -6
8 29 23 29 13 55 26 59 30 8 8 14 9 14 2z m-1253 -67 c29 -27 30 -64 2 -78
-27 -15 -51 -6 -42 16 5 14 1 15 -28 9 -19 -3 -41 -15 -51 -26 -9 -10 -19 -19
-23 -19 -5 0 -79 -75 -120 -122 -12 -14 -20 -16 -29 -9 -9 8 -18 6 -32 -4 -18
-14 -18 -14 3 -15 26 0 35 -12 27 -34 -8 -21 -42 -30 -59 -16 -10 9 -15 6 -20
-10 -4 -12 -18 -26 -33 -31 -21 -8 -29 -6 -45 10 -19 19 -19 19 12 35 22 12
31 24 31 41 0 18 7 26 24 31 32 8 42 35 20 51 -26 19 -10 47 24 40 35 -7 69
20 68 53 -1 22 3 25 42 28 34 3 45 8 54 28 10 22 15 24 58 18 38 -5 48 -3 53
10 9 22 37 20 64 -6z m147 -3 c7 -19 -41 -48 -67 -41 -35 9 -50 23 -44 39 7
19 103 21 111 2z m1576 1 c0 -3 -4 -8 -10 -11 -5 -3 -10 -1 -10 4 0 6 5 11 10
11 6 0 10 -2 10 -4z m-2323 -48 c-3 -7 -5 -2 -5 12 0 14 2 19 5 13 2 -7 2 -19
0 -25z m853 10 c0 -27 -17 -40 -40 -33 l-23 7 24 19 c28 22 39 24 39 7z
m-1092 -33 c-3 -3 -9 2 -12 12 -6 14 -5 15 5 6 7 -7 10 -15 7 -18z m2587 5 c3
-5 1 -10 -4 -10 -6 0 -11 5 -11 10 0 6 2 10 4 10 3 0 8 -4 11 -10z m-2355 -10
c-11 -7 -11 -10 -2 -10 7 0 10 -5 7 -10 -4 -6 -11 -8 -16 -5 -5 3 -6 0 -4 -7
6 -14 -37 -58 -55 -58 -6 0 -10 -7 -10 -16 0 -11 -5 -14 -17 -10 -10 4 -15 4
-11 1 9 -9 -23 -45 -40 -45 -7 0 -11 -4 -8 -8 3 -5 -12 -10 -32 -11 -20 -1
-48 -4 -62 -6 -14 -2 -37 -4 -52 -4 -15 -1 -34 -8 -42 -16 -8 -9 -39 -24 -68
-34 -29 -10 -61 -22 -70 -26 -11 -4 -18 -3 -18 5 0 6 5 8 10 5 6 -3 10 -1 10
5 0 6 5 8 10 5 6 -3 10 -1 10 4 0 13 -3 13 -25 5 -8 -4 -22 -21 -30 -40 -15
-36 -76 -73 -109 -66 -15 3 -17 0 -12 -14 4 -10 4 -15 0 -12 -11 12 -46 -12
-40 -28 6 -16 -35 -59 -82 -87 l-30 -17 11 24 c7 14 17 22 27 19 13 -4 13 -4
0 6 -8 5 -26 7 -39 4 -17 -4 -22 -2 -19 8 3 8 11 14 19 14 8 0 20 4 27 8 6 5
16 6 21 3 5 -4 24 9 42 28 18 19 36 33 41 30 4 -3 5 2 2 10 -5 14 5 21 28 18
3 -1 12 6 20 15 11 14 11 16 -2 8 -8 -5 -26 -11 -39 -13 -22 -3 -23 -1 -10 14
9 12 9 15 2 10 -7 -4 -13 -2 -13 4 0 6 14 8 39 4 28 -4 46 -1 64 11 14 9 30
14 35 11 5 -3 7 6 4 20 -3 16 1 30 9 35 10 6 10 9 2 9 -7 0 -13 5 -13 11 0 12
41 2 51 -12 8 -13 69 10 69 25 0 17 35 48 43 39 12 -11 8 -25 -5 -17 -7 4 -8
3 -4 -5 4 -6 11 -9 16 -6 4 3 10 -2 14 -10 3 -9 12 -12 22 -8 16 6 16 7 -2 14
-18 7 -18 8 2 8 11 1 29 8 40 16 22 16 54 20 54 6 0 -6 -4 -13 -10 -16 -5 -3
-10 -1 -10 6 0 7 -3 10 -6 6 -3 -3 -1 -14 5 -24 7 -12 10 -13 11 -4 0 9 7 11
21 8 15 -4 19 -2 15 9 -3 9 1 14 14 14 28 0 110 53 105 68 -3 7 0 10 6 7 12
-8 49 22 49 40 0 14 21 35 35 35 5 0 3 -5 -5 -10z m1050 -5 c10 -12 10 -15 -4
-15 -9 0 -16 7 -16 15 0 8 2 15 4 15 2 0 9 -7 16 -15z m1310 -25 c-6 -11 -8
-20 -5 -20 3 0 0 -6 -7 -14 -7 -7 -19 -11 -27 -8 -8 3 -12 1 -9 -4 4 -5 -5 -9
-18 -9 -33 0 -30 11 8 24 17 6 37 20 45 31 18 26 27 26 13 0z m-1832 -2 c-6
-16 -36 -34 -44 -26 -3 4 -4 14 -1 23 7 17 51 21 45 3z m252 -4 c0 -9 -5 -14
-12 -12 -18 6 -21 28 -4 28 9 0 16 -7 16 -16z m1352 -19 c4 -16 1 -25 -7 -25
-8 0 -11 8 -8 20 3 12 0 20 -6 20 -7 0 -9 -4 -6 -10 3 -5 -1 -10 -9 -10 -10 0
-13 6 -10 15 10 25 41 18 46 -10z m-3172 11 c0 -3 -4 -8 -10 -11 -5 -3 -10 -1
-10 4 0 6 5 11 10 11 6 0 10 -2 10 -4z m56 -33 c-3 -4 -6 -1 -6 6 0 7 -4 9
-10 6 -11 -7 -14 8 -3 19 4 3 11 -1 16 -9 5 -9 6 -19 3 -22z m3019 0 c-4 -12
1 -14 22 -9 21 4 17 0 -12 -13 -38 -18 -64 -19 -36 -2 10 6 10 10 1 16 -7 4
-13 -1 -17 -14 -3 -11 -14 -23 -24 -26 -11 -4 -17 -11 -14 -16 4 -5 3 -9 -2
-9 -4 0 -28 -18 -53 -40 -47 -42 -60 -48 -60 -28 0 6 -7 3 -15 -8 -11 -15 -14
-16 -15 -3 0 8 3 19 8 25 4 5 -1 1 -10 -9 -29 -31 -16 -46 20 -24 16 11 15 2
-3 -33 -16 -31 -32 -42 -21 -14 3 8 2 12 -3 9 -10 -5 -11 -14 -13 -66 0 -26
-1 -26 -19 -8 -11 11 -19 25 -19 33 0 8 -4 18 -10 21 -15 9 -50 -13 -51 -33 0
-11 -2 -13 -6 -4 -6 17 25 52 46 52 21 0 71 72 53 78 -14 4 -7 22 9 22 6 0 7
-6 3 -12 -3 -7 5 0 20 16 14 16 26 39 26 51 0 20 21 34 52 35 15 0 -5 -29 -23
-35 -10 -4 -19 -11 -19 -17 0 -6 6 -6 15 2 8 7 22 9 31 6 15 -6 15 -8 -2 -27
-18 -21 -18 -21 8 -8 31 13 47 41 20 33 -14 -5 -13 -3 2 10 11 9 15 16 10 16
-6 0 -15 -5 -22 -12 -9 -9 -12 -9 -12 0 0 7 11 17 24 22 13 5 29 17 34 26 6
11 17 15 31 11 11 -3 21 -1 21 4 0 4 7 6 16 2 8 -3 13 -12 9 -20z m175 7 c0
-5 -2 -10 -4 -10 -3 0 -8 5 -11 10 -3 6 -1 10 4 10 6 0 11 -4 11 -10z m-1335
-26 c-23 -17 -32 -10 -15 11 7 8 17 12 23 8 6 -4 3 -11 -8 -19z m-425 -8 c0
-18 -17 -29 -30 -21 -8 5 -7 11 1 21 15 18 29 18 29 0z m660 8 c0 -21 -24 -44
-48 -44 l-27 0 30 25 c29 24 45 31 45 19z m950 -24 c-8 -5 -22 -9 -30 -9 -10
0 -8 3 5 9 27 12 43 12 25 0z m948 -52 c-18 -80 -68 -138 -152 -172 -21 -9
-46 -16 -55 -16 -9 0 10 11 43 25 32 13 72 37 89 52 33 31 66 96 67 131 0 12
4 22 9 22 5 0 5 -18 -1 -42z m-3064 17 c-4 -9 0 -15 10 -15 19 0 21 -16 4 -26
-7 -4 -8 -3 -4 4 4 7 1 12 -8 12 -8 0 -18 -4 -21 -10 -3 -5 -12 -10 -18 -10
-7 0 -6 4 3 10 8 5 11 10 6 10 -5 0 -1 9 9 20 22 24 26 25 19 5z m2153 -1 c-3
-3 -12 -4 -19 -1 -8 3 -5 6 6 6 11 1 17 -2 13 -5z m-1707 -29 c0 -8 -7 -15
-16 -15 -14 0 -14 3 -4 15 7 8 14 15 16 15 2 0 4 -7 4 -15z m-353 -11 c-3 -3
-12 -4 -19 -1 -8 3 -5 6 6 6 11 1 17 -2 13 -5z m1943 -4 c0 -5 -10 -14 -21
-21 -17 -9 -20 -8 -16 3 2 7 10 12 16 11 6 -2 11 2 11 7 0 6 2 10 5 10 3 0 5
-4 5 -10z m-2166 -8 c2 -4 -5 -9 -17 -9 -17 -2 -19 0 -7 7 18 12 18 12 24 2z
m176 4 c0 -2 -7 -7 -16 -10 -8 -3 -12 -2 -9 4 6 10 25 14 25 6z m-40 -28 c0
-3 6 -8 13 -11 6 -2 -1 -2 -18 1 -46 7 -67 22 -28 19 18 -1 33 -5 33 -9z m164
-5 c4 -10 4 -14 0 -10 -4 4 -13 -1 -20 -11 -12 -16 -13 -15 -14 5 0 12 6 24
13 26 6 3 13 6 13 6 1 1 5 -7 8 -16z m-289 -3 c16 -7 14 -9 -15 -9 -19 -1 -53
-4 -75 -8 -53 -8 -40 5 16 16 56 11 51 11 74 1z m2090 -27 c-25 -18 -31 -9 -8
14 10 10 20 15 22 9 2 -5 -4 -15 -14 -23z m-2276 -25 c-9 -17 -13 -18 -20 -7
-5 8 -9 9 -9 3 0 -11 -63 -44 -83 -44 -7 0 1 12 17 26 16 14 35 23 42 20 8 -3
14 -1 14 4 0 6 7 10 15 10 8 0 15 5 15 11 0 5 5 7 10 4 7 -4 6 -13 -1 -27z
m654 19 c6 -17 -29 -60 -43 -52 -19 12 -23 -26 -4 -41 18 -14 18 -14 -4 -4
-17 8 -22 18 -20 40 1 17 8 30 14 30 7 0 16 9 19 20 7 22 30 27 38 7z m1450
-94 c-2 -16 2 -23 12 -23 8 0 15 -4 15 -8 0 -17 -13 -21 -32 -11 -22 12 -48
-3 -48 -27 0 -21 16 -17 29 9 11 22 11 22 7 -3 -19 -111 -29 -144 -37 -125 -6
17 -8 17 -8 3 -1 -10 -5 -18 -11 -18 -17 0 -11 18 11 33 15 11 20 23 17 48 -3
37 -22 45 -50 21 -12 -10 -18 -11 -18 -3 0 6 7 14 15 17 8 4 29 28 47 55 17
27 35 49 40 49 5 0 4 8 -1 19 -6 10 -7 22 -3 25 9 10 20 -33 15 -61z m122 27
c-9 -16 -18 -30 -21 -30 -2 0 2 14 11 30 9 17 18 30 21 30 2 0 -2 -13 -11 -30z
m-2380 -10 c-3 -5 -12 -10 -18 -10 -7 0 -6 4 3 10 19 12 23 12 15 0z m-990
-10 c3 -5 1 -10 -4 -10 -6 0 -11 5 -11 10 0 6 2 10 4 10 3 0 8 -4 11 -10z
m4279 1 c-8 -8 -43 -8 -38 0 2 4 13 7 24 6 10 -1 17 -3 14 -6z m-3308 -38
c-15 -12 -26 -26 -26 -30 0 -5 -8 -8 -19 -9 -10 -1 -24 -5 -31 -9 -8 -5 -11
-4 -6 3 3 5 1 12 -6 14 -9 3 -9 6 0 12 7 4 12 3 12 -3 0 -6 13 -2 30 7 16 9
30 22 30 27 0 6 9 11 21 11 20 0 20 -2 -5 -23z m874 -53 c0 -15 -25 -18 -37
-4 -10 10 -10 13 0 17 15 5 37 -2 37 -13z m-996 -67 c-11 -14 -31 -33 -44 -41
-18 -11 -16 -7 8 16 19 19 30 37 26 44 -4 7 -3 8 4 4 7 -4 12 -2 12 5 0 7 3 9
7 6 4 -4 -2 -19 -13 -34z m-45 8 c-7 -10 -21 -24 -33 -31 -15 -9 -12 -3 8 19
34 35 41 39 25 12z m1431 15 c0 -2 -8 -10 -17 -17 -16 -13 -17 -12 -4 4 13 16
21 21 21 13z m210 -6 c0 -5 -7 -10 -16 -10 -8 0 -12 5 -9 10 3 6 10 10 16 10
5 0 9 -4 9 -10z m810 0 c0 -5 -4 -10 -10 -10 -5 0 -10 5 -10 10 0 6 5 10 10
10 6 0 10 -4 10 -10z m-2556 -36 c3 -8 2 -12 -4 -9 -6 3 -10 -1 -10 -9 0 -9 6
-16 13 -16 6 0 1 -6 -12 -13 -14 -6 -26 -19 -28 -27 -3 -10 1 -8 11 4 20 25
20 8 1 -18 -11 -15 -15 -16 -16 -5 0 8 -9 -4 -19 -26 l-19 -40 6 35 c3 19 11
38 16 41 18 13 -2 39 -29 39 -33 0 -29 7 8 14 34 6 68 24 68 36 0 15 7 12 14
-6z m1476 -24 c0 -14 -32 -28 -80 -36 -31 -5 -41 -4 -36 4 4 7 15 12 24 12 9
0 28 7 42 14 30 17 50 19 50 6z m-2746 -90 c-15 -33 -31 -60 -35 -60 -16 0
-10 24 23 90 40 82 51 56 12 -30z m2529 76 c4 -11 1 -13 -10 -9 -11 4 -14 2
-9 -5 8 -13 -35 -27 -56 -19 -7 3 -3 6 9 6 13 1 28 10 35 21 15 24 24 25 31 6z
m821 -75 c2 -3 -17 -4 -44 -3 -54 4 -136 -30 -124 -51 4 -7 3 -9 -1 -4 -5 4
-20 -3 -33 -15 l-25 -23 23 33 c32 44 107 79 160 74 22 -2 42 -7 44 -11z m428
-28 c8 -10 6 -13 -6 -13 -10 0 -14 -4 -11 -10 3 -6 -1 -7 -10 -4 -12 5 -13 10
-6 17 6 6 12 22 12 37 1 20 2 21 6 5 3 -11 10 -26 15 -32z m38 6 c0 -5 -4 -9
-10 -9 -5 0 -10 7 -10 16 0 8 5 12 10 9 6 -3 10 -10 10 -16z m-753 -5 c5 -14
-35 -26 -43 -13 -8 14 6 30 24 27 8 -2 17 -8 19 -14z m-1787 -23 c-5 -11 -15
-23 -21 -27 -6 -3 -3 5 6 20 20 30 30 35 15 7z m1225 9 c-3 -5 -11 -10 -16
-10 -6 0 -7 5 -4 10 3 6 11 10 16 10 6 0 7 -4 4 -10z m2745 -6 c0 -8 -4 -12
-10 -9 -5 3 -10 10 -10 16 0 5 5 9 10 9 6 0 10 -7 10 -16z m130 6 c0 -5 -9
-14 -20 -20 -16 -8 -20 -8 -20 4 0 8 8 17 18 19 9 3 18 5 20 6 1 0 2 -3 2 -9z
m-1998 -27 c15 -7 32 -22 38 -35 l11 -23 -18 22 c-10 12 -30 27 -45 32 -16 6
-28 16 -28 23 0 8 3 9 8 3 4 -6 19 -16 34 -22z m-55 11 c-3 -3 -12 -4 -19 -1
-8 3 -5 6 6 6 11 1 17 -2 13 -5z m-2134 -25 c-3 -9 -10 -16 -16 -17 -7 0 -27
-3 -44 -6 -40 -6 -42 4 -5 25 35 20 70 20 65 -2z m2056 19 c-2 -2 -20 -16 -39
-33 l-35 -30 29 33 c17 17 34 32 40 32 5 0 7 -1 5 -2z m-1034 -55 c-18 -16
-34 -22 -47 -17 -15 4 -18 3 -13 -6 6 -9 4 -11 -6 -5 -7 5 -25 8 -40 7 -15 -1
-32 5 -39 13 -11 14 -10 15 11 8 46 -16 125 0 142 29 8 11 13 14 16 6 2 -6 -8
-22 -24 -35z m3039 33 c-3 -8 -1 -17 5 -21 19 -11 12 -22 -23 -39 -47 -22 -66
-20 -36 5 14 11 18 18 10 14 -10 -4 -9 -1 3 8 18 15 24 43 7 32 -5 -3 -10 -1
-10 4 0 6 11 11 25 11 17 0 23 -4 19 -14z m-894 -11 c0 -1 -12 -2 -26 -2 -17
0 -22 2 -13 7 10 7 39 3 39 -5z m790 2 c0 -8 -3 -17 -7 -21 -4 -4 -8 -21 -9
-37 -1 -17 -3 -31 -5 -33 -72 -55 -103 -74 -112 -70 -7 2 -18 -10 -26 -28 -17
-40 -69 -91 -83 -82 -7 5 -5 11 5 19 19 14 23 41 6 47 -6 2 -1 15 11 31 14 17
28 26 37 23 26 -10 35 5 18 30 -18 28 -11 48 15 41 11 -3 21 1 24 9 11 28 25
14 19 -18 l-6 -31 26 19 c32 23 34 42 6 52 -19 7 -17 10 18 34 43 29 63 34 63
15z m170 3 c0 -5 -4 -10 -10 -10 -5 0 -10 5 -10 10 0 6 5 10 10 10 6 0 10 -4
10 -10z m-2163 -15 c0 -8 -4 -15 -9 -15 -10 0 -11 14 -1 23 9 10 10 9 10 -8z
m1133 6 c0 -5 -13 -14 -29 -21 -16 -6 -45 -26 -65 -45 -20 -18 -36 -30 -36
-26 0 11 52 57 90 80 40 24 40 24 40 12z m1230 -6 c-7 -8 -17 -12 -22 -9 -6 4
-5 10 3 15 22 14 33 10 19 -6z m-2387 -83 c4 -32 2 -50 -3 -47 -6 4 -10 29
-10 57 0 64 5 60 13 -10z m36 25 c-5 -18 -9 -34 -10 -37 -1 -10 -18 35 -18 50
-1 9 8 16 18 17 17 1 18 -2 10 -30z m611 21 c-30 -14 -28 -13 -65 -23 -16 -4
-35 -12 -42 -17 -7 -5 -31 -12 -55 -14 -35 -3 -39 -2 -25 7 10 6 27 9 37 6 11
-3 20 -2 22 3 4 9 117 49 138 49 8 0 4 -5 -10 -11z m-1560 -23 c-7 -9 -15 -13
-19 -10 -3 3 1 10 9 15 21 14 24 12 10 -5z m1600 -6 c0 -6 -4 -7 -10 -4 -5 3
-10 1 -10 -6 0 -7 -2 -10 -5 -7 -9 8 6 38 16 32 5 -3 9 -10 9 -15z m-259 -17
c-7 -2 -18 1 -23 6 -8 8 -4 9 13 5 13 -4 18 -8 10 -11z m1019 10 c0 -4 -9 -13
-20 -20 -19 -12 -20 -11 -8 8 13 20 28 27 28 12z m-4854 -28 c-4 -9 -9 -15
-11 -12 -3 3 -3 13 1 22 4 9 9 15 11 12 3 -3 3 -13 -1 -22z m2488 17 c12 6 3
-5 -18 -25 -21 -19 -43 -33 -47 -30 -5 3 -6 -1 -3 -9 5 -14 -21 -31 -35 -22
-12 7 -9 -29 3 -37 6 -5 1 -8 -11 -8 -13 0 -23 6 -24 13 0 10 -2 10 -6 0 -2
-7 -11 -13 -18 -13 -8 0 -18 -7 -23 -16 -10 -18 -107 -56 -118 -46 -4 4 -4 2
-1 -5 4 -6 -3 -20 -16 -30 -13 -10 -26 -26 -30 -36 -4 -10 -11 -16 -16 -13 -5
4 -12 0 -14 -6 -4 -9 -6 -9 -6 -1 -1 6 6 18 14 27 8 8 12 22 9 30 -4 10 -1 16
7 16 17 1 69 45 69 60 0 5 9 10 19 10 11 0 23 5 27 11 5 8 10 6 16 -5 5 -9 14
-16 21 -16 8 0 7 4 -2 9 -12 8 -11 13 10 30 13 12 32 19 41 17 11 -2 15 1 11
10 -3 8 1 14 9 14 8 0 23 9 33 20 12 13 25 18 38 14 16 -5 19 -3 13 11 -8 22
3 40 17 26 7 -7 17 -7 31 0z m1271 -11 c10 -11 16 -20 13 -20 -3 0 -13 9 -23
20 -10 11 -16 20 -13 20 3 0 13 -9 23 -20z m-407 -17 c-3 -29 -23 -39 -48 -24
-12 8 -12 13 4 30 27 30 48 27 44 -6z m2192 23 c0 -3 -4 -8 -10 -11 -5 -3 -10
-1 -10 4 0 6 5 11 10 11 6 0 10 -2 10 -4z m-1590 -46 c-34 -11 -60 -11 -35 0
11 5 29 8 40 8 16 0 15 -2 -5 -8z m1510 0 c0 -5 -4 -10 -10 -10 -5 0 -10 5
-10 10 0 6 5 10 10 10 6 0 10 -4 10 -10z m-70 -35 c0 -8 -9 -15 -20 -15 -20 0
-26 11 -13 23 12 13 33 7 33 -8z m-4010 -14 c-6 -12 -18 -18 -30 -16 -11 2
-20 -1 -20 -7 0 -6 -2 -9 -5 -6 -3 3 -3 12 1 21 5 14 16 18 57 26 4 0 3 -8 -3
-18z m-254 -40 c4 -12 7 -12 17 1 6 8 19 18 28 21 21 7 44 -8 35 -22 -4 -6
-13 -8 -19 -4 -9 5 -9 3 0 -8 11 -13 2 -15 -70 -13 -45 2 -76 -1 -68 -5 16
-10 6 -16 -41 -25 -31 -6 -39 -3 -48 14 -10 18 -7 24 12 21 4 0 5 6 2 14 -8
20 51 20 86 0 31 -17 44 -19 34 -3 -4 7 -3 8 4 4 8 -5 12 2 13 21 0 15 3 21 6
13 2 -8 7 -21 9 -29z m1504 26 c0 -2 -10 -12 -22 -23 l-23 -19 19 23 c18 21
26 27 26 19z m2113 -29 c-6 -31 -23 -38 -23 -10 0 16 20 46 26 39 1 -1 0 -14
-3 -29z m-3478 9 c13 4 16 3 11 -6 -6 -9 0 -10 20 -5 21 5 25 4 19 -6 -5 -9
-4 -11 4 -6 16 10 61 -1 61 -15 0 -6 -8 -5 -22 2 -21 11 -22 11 -9 -4 11 -14
11 -17 0 -18 -8 -1 -18 0 -24 1 -5 1 -23 2 -39 2 -20 -1 -30 5 -33 19 -3 10
-12 19 -19 19 -8 0 -14 7 -14 16 0 13 3 14 14 5 7 -6 22 -8 31 -4z m4037 -13
c-4 -21 -22 -35 -34 -28 -11 7 14 55 26 51 6 -2 9 -13 8 -23z m-2956 -3 c-4
-6 -14 -7 -23 -4 -15 6 -14 7 3 13 22 9 29 6 20 -9z m1051 3 c8 -21 -23 -52
-38 -37 -14 14 -2 53 17 53 8 0 17 -7 21 -16z m542 7 c7 -5 10 -14 6 -20 -4
-7 -1 -19 6 -28 11 -13 10 -17 -6 -29 -26 -19 -36 -18 -42 6 -6 24 -26 26 -43
5 -9 -10 -9 -15 -1 -15 17 0 13 -37 -5 -44 -26 -10 -32 -7 -27 14 14 55 -80
-23 -126 -104 -16 -29 -36 -58 -45 -65 -19 -16 -21 -52 -3 -70 10 -10 8 -15
-6 -26 -10 -7 -19 -17 -19 -22 -2 -19 -23 -41 -35 -36 -15 6 -16 2 -7 -22 5
-13 8 -14 15 -3 7 10 9 9 9 -4 0 -10 -5 -18 -11 -18 -7 0 -9 -10 -5 -26 5 -18
2 -32 -9 -45 -10 -10 -14 -22 -11 -28 4 -6 0 -24 -9 -40 -8 -16 -12 -36 -9
-44 3 -9 -2 -29 -10 -45 -9 -17 -13 -38 -10 -46 3 -9 -2 -28 -11 -43 -10 -15
-19 -43 -21 -62 -1 -20 -7 -37 -13 -39 -6 -2 -11 -15 -11 -29 0 -14 -9 -38
-20 -53 -11 -16 -17 -35 -14 -43 3 -10 -3 -21 -15 -29 -12 -7 -21 -20 -21 -30
0 -9 -7 -24 -16 -33 -14 -14 -15 -22 -6 -53 6 -21 16 -70 22 -109 9 -69 9 -74
-20 -134 -16 -34 -27 -66 -24 -70 3 -5 19 7 35 26 23 26 30 42 27 67 -3 34 0
36 42 23 24 -8 24 -7 7 18 -23 36 -22 39 22 66 31 19 44 36 60 81 12 31 21 66
21 77 0 25 51 104 65 100 14 -5 33 -45 40 -86 7 -43 12 -51 31 -51 8 0 29 -8
47 -17 43 -23 86 -25 119 -5 l27 16 -24 16 -25 16 24 23 c13 13 27 34 30 47 4
13 10 24 15 24 12 0 24 -34 14 -37 -21 -8 -37 -23 -31 -29 4 -3 15 1 24 11 14
13 19 14 26 3 8 -10 9 -9 5 3 -6 20 9 46 20 35 4 -5 2 -11 -5 -13 -6 -3 -10
-9 -6 -14 3 -5 -4 -22 -15 -38 -11 -15 -17 -32 -13 -36 4 -5 2 -5 -4 -2 -13 7
-59 -41 -49 -51 4 -4 15 4 26 17 14 17 19 19 19 8 0 -9 -5 -19 -10 -22 -6 -4
-7 -11 -4 -17 5 -7 0 -9 -14 -6 -15 4 -23 0 -27 -13 -4 -10 -11 -19 -16 -19
-6 0 -6 7 1 19 16 30 12 47 -6 25 -8 -10 -13 -13 -9 -6 3 6 1 12 -4 12 -6 0
-11 -5 -11 -10 0 -6 -27 4 -60 21 -33 17 -66 29 -74 26 -7 -3 -17 -2 -22 3 -5
5 -26 0 -49 -11 -22 -11 -32 -17 -22 -14 10 3 15 1 12 -5 -3 -6 -12 -10 -20
-10 -12 0 -31 -47 -22 -56 6 -7 47 32 47 45 0 6 5 11 11 11 5 0 8 -4 5 -8 -2
-4 7 -9 22 -10 59 -5 52 -30 -30 -108 -100 -96 -128 -130 -128 -158 0 -23 9
-31 32 -28 3 1 4 -17 1 -38 -5 -34 -3 -40 13 -41 47 -3 73 5 129 40 80 49 105
56 104 28 -2 -33 -16 -85 -18 -64 -2 27 -21 10 -21 -19 0 -14 -6 -39 -14 -57
-13 -31 -47 -49 -148 -81 -10 -3 -18 -15 -18 -26 0 -22 -7 -25 -29 -11 -7 5
-11 13 -7 19 3 6 2 13 -3 16 -5 4 -12 2 -16 -4 -4 -6 -11 -7 -17 -4 -8 5 -9 1
-5 -10 4 -10 3 -15 -3 -11 -6 3 -10 14 -10 25 0 22 -30 35 -42 18 -5 -9 -8 -6
-8 10 0 12 -5 22 -11 22 -6 0 -8 -8 -5 -17 6 -17 5 -17 -7 -1 -15 19 -48 19
-60 1 -13 -20 -27 -15 -28 10 -1 16 -2 18 -6 5 -2 -10 -9 -18 -14 -18 -5 0 -9
-12 -9 -26 0 -14 -4 -22 -10 -19 -6 4 -8 -6 -6 -24 2 -17 -1 -28 -5 -25 -5 3
-9 20 -10 37 0 26 -2 28 -8 12 -7 -17 -9 -15 -13 12 -2 18 -1 30 3 27 4 -2 5
6 2 17 -6 21 -7 21 -20 3 -7 -10 -11 -25 -8 -32 4 -10 0 -12 -11 -8 -12 4 -15
2 -11 -9 4 -8 2 -17 -4 -20 -5 -4 -6 -12 -3 -18 4 -7 3 -8 -2 -4 -5 5 -14 -7
-20 -29 -6 -21 -15 -39 -21 -41 -6 -2 0 27 13 64 13 37 24 69 24 70 0 1 -7 0
-15 -3 -8 -4 -13 -10 -10 -14 5 -9 -1 -16 -40 -46 -11 -9 -13 -13 -5 -9 10 4
9 2 -2 -8 -10 -8 -15 -17 -12 -20 8 -8 -29 -68 -57 -93 -12 -10 -6 3 14 29 39
52 43 62 27 72 -6 4 -9 3 -8 -2 3 -11 -21 -53 -45 -77 -11 -12 -17 -15 -13 -8
4 7 2 12 -6 12 -7 0 -2 7 10 16 12 8 27 25 34 37 6 13 -11 1 -43 -27 -30 -27
-54 -56 -53 -66 1 -12 -7 -16 -32 -15 -18 0 -31 -2 -29 -5 2 -3 -3 -13 -10
-23 -12 -16 -13 -16 -18 5 -4 15 1 28 19 45 14 13 29 23 33 23 15 0 86 62 105
91 15 24 16 33 7 42 -9 9 -11 8 -6 -4 4 -12 -8 -28 -40 -55 -26 -22 -51 -38
-57 -36 -6 1 -16 -3 -24 -9 -10 -8 -14 -8 -14 0 0 6 3 11 8 11 4 0 31 21 61
45 52 44 46 55 -14 23 -42 -21 -105 -30 -105 -14 0 6 5 17 12 24 17 17 0 28
-22 14 -31 -19 -30 -14 2 20 29 31 31 32 57 17 15 -9 33 -12 41 -8 8 4 26 10
40 13 35 8 59 26 42 33 -6 2 -9 9 -6 14 4 6 11 6 19 -1 10 -8 19 -8 34 2 25
15 27 31 6 48 -15 13 -21 40 -8 40 4 0 20 -12 35 -27 30 -29 49 -23 55 17 3
23 0 24 -27 8 -15 -10 -22 -9 -37 4 -39 34 -61 40 -87 23 -19 -13 -29 -14 -45
-5 -21 11 -31 -3 -11 -15 6 -3 10 -22 10 -42 l0 -35 -55 4 c-72 6 -92 25 -88
80 l2 43 -15 -27 c-23 -43 -27 -33 -5 11 l20 39 -24 26 c-29 31 -30 36 -10 36
8 0 15 -4 15 -8 0 -4 12 -15 28 -24 20 -12 32 -14 46 -6 13 7 26 7 43 -1 31
-14 85 -14 118 1 18 8 25 19 25 39 0 15 5 31 10 34 11 7 -5 45 -23 57 -6 3
-11 15 -12 26 0 11 -9 27 -18 36 -21 21 -22 50 -2 79 13 21 13 30 -6 93 -12
38 -23 80 -26 94 -6 28 -140 170 -160 170 -7 0 -13 6 -13 14 0 18 67 10 91
-10 8 -8 20 -14 25 -14 16 -1 71 -56 89 -91 33 -62 35 -69 35 -98 0 -17 6 -31
15 -35 12 -4 14 -14 9 -42 -5 -25 -3 -35 4 -30 6 3 11 14 11 24 -1 27 21 106
32 117 5 5 10 -13 10 -50 3 -96 12 -128 43 -154 14 -11 15 -6 11 46 -3 48 2
77 31 158 19 55 37 110 41 123 3 12 9 22 13 22 13 0 40 -48 47 -83 3 -17 10
-40 15 -50 9 -17 11 -16 29 7 10 13 19 33 19 44 0 10 9 27 20 37 11 10 20 29
20 42 0 14 7 31 15 39 8 9 15 28 15 44 0 16 5 32 11 36 6 3 8 17 4 31 -4 16 1
34 15 53 22 31 25 51 9 67 -7 7 -3 21 12 47 13 23 22 54 21 79 0 28 7 49 20
64 13 13 18 29 14 39 -4 10 1 25 11 36 14 16 15 22 4 40 -7 11 -11 21 -9 22 2
1 17 12 35 24 40 28 51 59 27 76 -19 14 -11 36 13 36 19 0 77 51 81 71 4 20
32 39 58 39 14 0 25 8 29 19 10 33 31 44 54 29 18 -11 23 -10 38 5 19 19 31
21 52 8z m111 0 c0 -6 -4 -12 -10 -16 -5 -3 -7 -12 -4 -19 7 -18 -11 -29 -34
-22 -11 4 -19 17 -20 36 -2 28 0 30 33 30 19 0 35 -4 35 -9z m517 3 c-3 -3
-12 -4 -19 -1 -8 3 -5 6 6 6 11 1 17 -2 13 -5z m-2002 -34 c-3 -5 -12 -10 -18
-10 -7 0 -6 4 3 10 19 12 23 12 15 0z m770 0 c3 -6 3 -19 0 -30 -9 -27 -55
-28 -55 0 0 28 42 51 55 30z m765 -10 c0 -11 -4 -20 -9 -20 -14 0 -23 18 -16
30 10 17 25 11 25 -10z m-3160 -29 c0 -4 -22 -20 -50 -34 -38 -20 -50 -23 -50
-12 0 8 -7 15 -15 15 -8 0 -15 4 -15 9 0 14 37 20 49 8 8 -8 11 -8 11 0 0 12
20 20 53 22 9 0 17 -3 17 -8z m506 -6 c12 -8 23 -13 25 -10 2 2 9 -7 15 -20
l11 -23 -34 19 c-18 10 -40 19 -48 19 -16 0 -20 12 -8 23 9 10 16 9 39 -8z
m3748 9 c18 -7 21 -41 5 -64 -8 -12 -9 -10 -7 9 2 18 -2 25 -19 27 -13 2 -23
-1 -23 -7 0 -5 -4 -7 -10 -4 -19 12 -7 27 37 44 1 1 8 -2 17 -5z m-4016 -16
c25 -25 10 -29 -80 -19 -18 2 -6 20 15 24 41 8 53 7 65 -5z m1367 -24 c-7 -20
-17 -39 -24 -43 -6 -4 -10 -18 -7 -32 7 -45 -36 -69 -48 -26 -4 16 1 27 17 41
12 10 21 23 19 29 -6 20 21 67 38 67 16 0 16 -4 5 -36z m1728 -2 c-6 -23 -24
-25 -31 -4 -2 7 3 12 12 12 9 0 16 5 16 12 0 6 2 9 5 7 2 -3 2 -15 -2 -27z
m-3213 8 c0 -9 -62 -40 -81 -40 -20 0 -7 27 19 37 35 14 62 16 62 3z m475 -10
c3 -5 1 -10 -4 -10 -6 0 -11 5 -11 10 0 6 2 10 4 10 3 0 8 -4 11 -10z m-257
-7 c-10 -2 -26 -2 -35 0 -10 3 -2 5 17 5 19 0 27 -2 18 -5z m66 -12 c3 -4 -6
-6 -19 -3 -14 2 -25 6 -25 8 0 8 39 4 44 -5z m120 -30 c-6 -6 -64 21 -64 30 0
5 15 1 34 -9 19 -9 32 -19 30 -21z m-549 -7 c-39 -31 -66 -33 -39 -3 20 22 55
40 64 32 3 -3 -8 -16 -25 -29z m2458 -15 c8 -54 -12 -77 -65 -75 -44 1 -68 10
-68 26 0 19 34 41 59 38 21 -2 29 3 40 30 17 37 26 32 34 -19z m-2573 16 c-11
-13 -10 -14 6 -9 13 5 10 0 -8 -14 -29 -25 -43 -28 -32 -9 5 8 2 8 -9 -2 -9
-7 -17 -10 -17 -7 0 4 -10 1 -22 -5 -19 -10 -18 -7 6 18 16 17 35 29 42 26 6
-2 15 0 19 6 3 6 11 11 17 11 6 0 6 -6 -2 -15z m781 -12 c13 -16 12 -17 -3 -4
-10 7 -18 15 -18 17 0 8 8 3 21 -13z m529 -3 c0 -11 -7 -20 -15 -20 -18 0 -19
12 -3 28 16 16 18 15 18 -8z m-362 -27 c-2 -9 -8 -18 -15 -20 -9 -3 -11 11 -4
35 1 1 6 2 12 2 6 0 9 -8 7 -17z m-918 -3 c0 -10 -52 -61 -57 -56 -3 3 48 65
55 66 1 0 2 -4 2 -10z m3560 -10 c0 -5 -5 -10 -11 -10 -5 0 -7 5 -4 10 3 6 8
10 11 10 2 0 4 -4 4 -10z m-2730 -16 c0 -2 -9 -4 -21 -4 -11 0 -18 4 -14 10 5
8 35 3 35 -6z m3519 2 c9 -11 6 -15 -13 -18 -33 -7 -57 8 -36 22 21 13 36 12
49 -4z m-822 -23 c-3 -3 -11 -2 -17 2 -9 6 -9 10 1 16 14 8 27 -7 16 -18z
m-2517 -18 c17 -21 -8 -30 -29 -11 -10 9 -21 13 -24 9 -4 -3 -7 0 -7 8 0 11
-2 11 -10 -1 -5 -8 -10 -10 -10 -4 0 6 2 13 5 16 9 8 64 -4 75 -17z m-1159
-37 c-12 -9 -29 -14 -38 -11 -15 6 -15 8 2 17 10 6 25 18 34 26 14 14 16 14
20 1 2 -8 -6 -23 -18 -33z m1823 36 c8 -20 -1 -34 -20 -34 -15 0 -17 9 -8 34
8 20 20 20 28 0z m-1769 -34 c-9 -16 -18 -30 -20 -30 -6 0 6 32 18 48 17 22
18 13 2 -18z m4053 -10 c-1 -16 -6 -26 -10 -22 -7 7 0 52 8 52 3 0 3 -13 2
-30z m-2998 -9 c0 -11 -39 -10 -46 1 -4 7 -2 8 4 4 7 -4 12 -3 12 3 0 6 7 8
15 5 8 -4 15 -9 15 -13z m690 9 c13 -8 12 -12 -6 -30 -15 -15 -38 -22 -87 -27
-57 -5 -71 -2 -102 17 -43 27 -40 36 6 18 19 -8 45 -13 59 -12 36 4 80 22 80
34 0 13 30 13 50 0z m848 -43 c-3 -30 -5 -32 -57 -40 -44 -6 -58 -4 -70 8 -15
15 -14 18 9 38 18 15 41 23 73 24 l48 2 -3 -32z m1082 -2 c-12 -15 -30 -12
-30 5 0 8 31 19 39 13 2 -1 -2 -9 -9 -18z m-1425 -31 c-16 -14 -38 -29 -47
-35 -31 -17 -11 14 25 39 43 30 59 27 22 -4z m2203 -36 c-2 -17 -9 -22 -23
-20 -30 6 -32 12 -11 28 28 20 38 17 34 -8z m72 12 c0 -5 -4 -10 -10 -10 -5 0
-10 5 -10 10 0 6 5 10 10 10 6 0 10 -4 10 -10z m-4610 -23 c0 -7 -4 -6 -10 3
-5 8 -10 10 -10 4 0 -7 -9 -14 -19 -17 -13 -3 -18 -1 -14 9 9 24 53 25 53 1z
m1174 -1 c-10 -8 -21 -12 -24 -10 -5 6 21 24 34 24 6 0 1 -6 -10 -14z m3396 4
c0 -5 -4 -10 -10 -10 -5 0 -10 5 -10 10 0 6 5 10 10 10 6 0 10 -4 10 -10z
m-1932 -62 c4 -30 -28 -58 -65 -58 -12 0 -28 -7 -37 -15 -13 -14 -16 -13 -30
7 -20 28 -20 30 3 56 12 15 30 22 54 22 20 0 39 5 42 11 11 17 30 4 33 -23z
m702 22 c0 -5 -5 -10 -11 -10 -5 0 -7 5 -4 10 3 6 8 10 11 10 2 0 4 -4 4 -10z
m430 -25 c0 -8 -9 -15 -19 -15 -24 0 -36 16 -19 23 24 10 38 7 38 -8z m37 -45
c1 -23 -2 -38 -8 -35 -15 10 -10 75 6 75 0 0 1 -18 2 -40z m-3037 -15 c0 -8
-3 -14 -7 -13 -5 1 -19 -3 -33 -10 -22 -11 -21 -10 5 12 35 30 35 30 35 11z
m1363 -7 c12 -6 43 -10 68 -9 34 1 48 -2 52 -14 4 -8 16 -15 27 -15 19 0 39
-25 28 -35 -2 -2 -46 1 -97 8 -85 10 -94 10 -102 -6 -6 -9 -21 -17 -33 -17
-13 0 -26 -7 -30 -15 -3 -8 -14 -15 -24 -15 -10 0 -27 -9 -37 -20 -10 -11 -24
-20 -32 -20 -8 0 -13 -6 -12 -12 4 -34 -3 -46 -32 -52 -27 -5 -30 -9 -25 -34
5 -20 0 -36 -17 -60 -22 -28 -26 -30 -37 -17 -19 23 -96 17 -94 -7 1 -9 -5
-19 -13 -23 -11 -3 -13 -1 -10 10 4 8 2 17 -3 20 -6 4 -10 11 -10 16 0 6 5 7
11 4 5 -4 18 0 27 8 9 8 26 17 37 19 27 5 33 38 7 38 -11 0 -22 6 -24 13 -9
22 3 37 28 37 27 0 28 3 13 31 -12 24 3 49 31 49 10 0 25 11 34 25 9 14 23 25
31 25 8 0 19 9 26 21 9 17 17 20 42 15 20 -4 36 -1 47 9 9 8 34 19 56 24 21 5
40 9 42 10 2 1 13 -4 25 -11z m-893 -7 c0 -10 -30 -24 -37 -17 -3 3 -2 9 2 15
8 13 35 15 35 2z m-1300 -16 c-7 -8 -16 -12 -21 -9 -5 3 -9 0 -9 -5 0 -6 -5
-11 -12 -11 -6 0 -3 9 7 20 22 24 55 29 35 5z m4612 -7 c-6 -23 -28 -30 -42
-13 -16 19 -5 33 23 31 17 -1 23 -6 19 -18z m68 -2 c0 -18 -16 -29 -30 -21
-13 8 -1 35 16 35 8 0 14 -6 14 -14z m-835 -27 c-4 -5 0 -9 7 -10 7 0 4 -4 -7
-9 -11 -5 -14 -9 -7 -9 9 -1 10 -6 3 -18 -6 -11 -6 -24 0 -35 8 -14 6 -16 -7
-11 -13 5 -15 3 -9 -8 4 -8 5 -11 0 -7 -9 9 -35 -9 -35 -24 0 -6 7 -5 15 2 12
10 15 10 15 -2 0 -8 -17 -18 -40 -25 -22 -5 -40 -6 -40 -2 0 5 5 9 11 9 5 0 8
4 4 9 -3 6 3 14 12 20 10 6 14 11 8 11 -5 0 4 11 20 25 23 19 26 24 13 25 -25
0 -22 25 5 53 21 22 44 27 32 6z m-1269 0 c3 -6 16 -8 29 -5 31 8 53 -17 35
-40 -7 -8 -23 -14 -34 -13 -12 2 -30 -2 -41 -8 -11 -5 -38 -13 -60 -16 -22 -3
-34 -3 -27 0 6 2 12 13 12 23 0 21 47 70 67 70 6 0 15 -5 19 -11z m-138 -47
c2 -7 -2 -10 -12 -6 -9 3 -16 11 -16 16 0 13 23 5 28 -10z m1472 -14 c0 -11
-28 -10 -35 1 -3 6 4 9 15 8 11 -1 20 -5 20 -9z m206 -24 c-9 -8 -16 -21 -16
-28 0 -7 -15 -13 -35 -14 -19 -2 -35 2 -35 8 0 5 12 10 28 10 16 0 32 8 40 20
7 11 17 20 23 20 6 0 3 -7 -5 -16z m-2605 -19 c-1 -15 -24 -12 -29 3 -3 9 2
13 12 10 10 -1 17 -7 17 -13z m1079 -20 c0 -7 -8 -23 -19 -36 l-18 -23 -19 28
c-18 28 -18 29 5 47 18 15 27 17 37 8 8 -6 14 -17 14 -24z m-2610 10 c-7 -8
-17 -15 -22 -15 -6 0 -5 7 2 15 7 8 17 15 22 15 6 0 5 -7 -2 -15z m1455 -4 c3
-5 0 -13 -6 -17 -6 -3 -14 -2 -18 4 -3 5 -15 12 -26 15 -13 3 -10 5 12 6 17 0
34 -3 38 -8z m182 -12 c-9 -6 -15 -14 -12 -19 7 -11 -51 -30 -89 -29 l-31 1
31 7 c16 4 48 20 69 34 21 15 41 24 44 21 3 -3 -2 -10 -12 -15z m2050 7 c4 -3
-6 -6 -21 -6 -19 0 -30 -7 -38 -25 -13 -28 -31 -35 -21 -7 3 9 3 14 -1 11 -10
-9 -16 -50 -6 -44 4 3 7 -2 6 -10 -3 -18 -46 -66 -55 -61 -3 3 -17 -2 -31 -10
-14 -7 -21 -13 -17 -14 5 0 18 5 30 12 19 10 20 9 10 -4 -7 -8 -9 -18 -5 -22
4 -4 3 -7 -3 -6 -19 4 -30 0 -57 -24 -34 -28 -36 -41 -5 -26 17 9 16 6 -6 -13
-27 -22 -57 -32 -57 -17 0 4 11 17 25 30 25 24 35 47 14 34 -8 -4 -9 0 -4 15
8 25 -3 28 -21 4 -7 -10 -16 -15 -20 -11 -14 15 29 48 62 48 18 0 36 5 39 10
3 6 15 10 25 10 13 0 22 9 26 28 4 15 17 41 30 59 13 17 24 36 24 42 0 10 67
8 77 -3z m353 4 c0 -5 -2 -10 -4 -10 -3 0 -8 5 -11 10 -3 6 -1 10 4 10 6 0 11
-4 11 -10z m-2644 -20 c17 0 19 -16 2 -18 -7 0 -30 -3 -50 -5 -21 -2 -38 0
-38 4 0 5 8 9 19 9 10 0 25 7 32 16 8 10 15 12 17 5 2 -6 10 -11 18 -11z
m3200 -25 c-5 -14 -22 -15 -43 -2 -20 13 -15 25 15 35 28 9 40 -3 28 -33z
m-3366 24 c0 -5 8 -6 18 -2 9 3 14 3 10 -1 -4 -5 -24 -10 -45 -13 -21 -3 -44
-10 -51 -15 -9 -8 -11 -7 -6 6 10 25 74 46 74 25z m2480 1 c0 -5 -5 -10 -11
-10 -5 0 -7 5 -4 10 3 6 8 10 11 10 2 0 4 -4 4 -10z m980 -17 c0 -13 -3 -23
-7 -24 -5 0 -18 -2 -30 -5 -19 -3 -23 1 -23 20 0 25 12 34 43 33 11 -1 17 -9
17 -24z m-2610 7 c0 -5 -2 -10 -4 -10 -3 0 -8 5 -11 10 -3 6 -1 10 4 10 6 0
11 -4 11 -10z m1870 2 c-1 -12 -49 -44 -59 -38 -4 3 -16 -3 -26 -14 -24 -26
-9 -25 41 4 24 13 47 20 54 16 9 -6 6 -10 -9 -15 -11 -3 -21 -11 -21 -16 0 -6
-5 -7 -11 -3 -6 3 -14 2 -18 -3 -9 -14 -71 -25 -71 -12 0 6 -4 7 -10 4 -5 -3
-18 2 -27 12 -10 10 -16 17 -14 16 2 -1 11 6 20 17 20 23 151 51 151 32z
m-2657 -19 c-7 -2 -19 -2 -25 0 -7 3 -2 5 12 5 14 0 19 -2 13 -5z m2377 -8 c0
-2 -6 -5 -13 -8 -8 -3 -14 1 -14 8 0 7 6 11 14 8 7 -3 13 -6 13 -8z m434 9
c27 -10 -1 -34 -40 -34 -32 0 -45 16 -27 33 8 9 46 9 67 1z m-2616 -42 c23
-15 31 -58 10 -59 -7 0 -17 -2 -23 -4 -5 -1 -39 1 -75 6 -36 5 -68 8 -72 7
-10 -3 -10 15 0 22 4 2 35 1 69 -3 52 -6 62 -5 72 11 15 24 4 28 -78 25 -78
-4 -100 10 -23 15 60 4 91 -1 120 -20z m-352 3 c-11 -8 -25 -15 -30 -15 -6 1
0 7 14 15 32 19 40 18 16 0z m3213 1 c10 -12 8 -13 -8 -9 -12 3 -18 9 -15 14
7 12 10 11 23 -5z m-649 -27 c-29 -25 -140 -75 -140 -63 0 2 10 15 22 29 16
19 24 22 30 13 6 -10 8 -10 8 0 0 6 8 12 18 12 9 1 33 9 52 20 48 27 51 24 10
-11z m-2610 12 c0 -5 -7 -11 -15 -15 -8 -3 -15 -12 -15 -20 0 -8 -4 -17 -9
-20 -13 -8 -8 15 9 42 15 22 30 29 30 13z m187 -29 c-2 -15 -8 -27 -13 -28 -5
0 -16 -4 -24 -7 -44 -19 -105 -37 -127 -37 -22 0 -23 3 -17 36 5 29 4 35 -6
29 -9 -5 -11 -4 -6 4 4 6 13 11 19 10 20 -4 87 13 83 20 -2 3 18 4 45 3 47 -4
49 -5 46 -30z m310 9 c-6 -17 -15 -27 -21 -24 -5 4 -7 -1 -3 -11 4 -10 3 -15
-3 -11 -22 13 -1 75 24 75 12 0 12 -6 3 -29z m43 19 c0 -5 -4 -10 -10 -10 -5
0 -10 5 -10 10 0 6 5 10 10 10 6 0 10 -4 10 -10z m1048 -24 c3 -12 -1 -17 -10
-14 -7 3 -15 13 -16 22 -3 12 1 17 10 14 7 -3 15 -13 16 -22z m1092 -28 c0 -4
-7 -5 -15 -2 -11 5 -13 2 -9 -10 3 -9 2 -16 -4 -16 -5 0 -31 -12 -58 -27 -62
-35 -81 -36 -89 -5 -7 29 4 44 39 47 36 4 99 26 111 38 7 7 6 8 -2 3 -9 -5
-11 -2 -6 10 5 14 8 13 19 -7 7 -13 13 -27 14 -31z m-2775 16 c20 -8 35 -18
32 -20 -3 -3 -15 0 -27 6 -12 7 -40 10 -61 8 -38 -3 -52 5 -26 15 22 10 44 7
82 -9z m623 -31 c-13 -16 -22 -17 -12 -1 5 8 2 9 -10 5 -9 -4 -15 -3 -11 2 3
6 14 9 25 8 14 -1 16 -4 8 -14z m35 -3 c-3 -11 -9 -17 -14 -15 -10 7 -1 35 11
35 5 0 6 -9 3 -20z m207 10 c0 -5 -8 -10 -17 -10 -15 0 -16 2 -3 10 19 12 20
12 20 0z m25 1 c-3 -6 4 -15 15 -21 22 -12 27 -30 8 -30 -6 0 -8 3 -5 7 4 3
-2 12 -13 20 -22 15 -27 33 -9 33 5 0 8 -4 4 -9z m2195 5 c0 -2 -7 -7 -16 -10
-8 -3 -12 -2 -9 4 6 10 25 14 25 6z m-3187 -43 c-3 -18 -9 -33 -13 -33 -5 0
-4 15 1 32 5 18 9 35 9 37 0 2 2 2 4 0 2 -2 1 -19 -1 -36z m3674 22 c-4 -20
-37 -49 -47 -39 -17 17 0 52 25 50 13 0 23 -5 22 -11z m-3517 -20 c-5 -11 -13
-19 -19 -17 -6 1 -10 -3 -8 -8 2 -10 -53 -43 -118 -71 -16 -7 -50 -29 -75 -49
-60 -49 -115 -78 -107 -57 3 9 0 18 -8 21 -16 6 -29 -24 -16 -37 6 -6 5 -15
-4 -23 -16 -16 -29 -19 -20 -4 3 6 1 10 -4 10 -6 0 -11 -5 -11 -11 0 -8 -4 -8
-12 -2 -22 17 -61 23 -75 11 -11 -8 -12 -7 -7 6 4 11 19 16 50 16 30 0 49 6
59 18 52 64 57 68 45 45 -7 -16 -7 -23 0 -23 6 0 15 11 20 25 5 14 12 25 15
25 4 0 3 -6 -1 -12 -4 -7 4 -3 18 10 13 12 32 22 41 22 9 0 17 5 17 10 0 14
18 12 23 -2 2 -7 3 -6 2 3 -4 24 5 33 47 52 20 10 40 23 44 29 4 7 3 8 -4 4
-8 -4 -10 -2 -6 8 5 14 46 23 100 22 18 0 20 -4 14 -21z m651 15 c5 0 9 -7 9
-16 0 -11 -5 -14 -16 -10 -9 3 -20 6 -25 6 -5 0 -9 7 -9 16 0 11 5 14 16 10 9
-3 20 -6 25 -6z m39 0 c0 -5 -4 -10 -10 -10 -5 0 -10 5 -10 10 0 6 5 10 10 10
6 0 10 -4 10 -10z m2241 -13 c-10 -9 -11 -8 -5 6 3 10 9 15 12 12 3 -3 0 -11
-7 -18z m669 10 c0 -31 -26 -67 -53 -73 -34 -7 -47 1 -17 11 18 6 21 12 17 35
-4 15 -3 30 0 34 12 11 53 6 53 -7z m-2532 -9 c-7 -19 -38 -22 -38 -4 0 10 9
16 21 16 12 0 19 -5 17 -12z m1428 -23 c-23 -18 -36 -19 -36 -4 0 5 5 7 10 4
6 -3 10 -1 10 4 0 6 8 11 18 11 15 -1 15 -2 -2 -15z m-166 -19 c0 -6 7 -2 15
8 13 18 15 18 15 3 0 -20 -32 -36 -37 -20 -2 6 -13 9 -23 6 -19 -5 -27 7 -14
19 9 9 44 -3 44 -16z m-1963 -3 c-10 -10 -47 -11 -53 -1 -4 6 -2 8 4 4 6 -3
13 -2 17 3 3 6 12 8 21 4 8 -3 13 -7 11 -10z m2162 -35 c-5 -10 -12 -18 -15
-18 -3 0 -3 4 1 9 3 5 1 12 -5 16 -6 4 -8 11 -5 16 10 15 -2 10 -16 -8 -12
-14 -12 -16 0 -8 11 6 13 4 8 -9 -4 -10 -7 -22 -7 -26 0 -12 -39 -33 -68 -36
-13 -1 -21 0 -19 3 3 2 7 4 9 2 9 -7 46 23 51 41 3 11 1 18 -4 14 -5 -3 -9
-13 -10 -22 0 -13 -2 -14 -6 -3 -4 9 9 27 33 47 34 29 39 31 50 16 8 -11 9
-23 3 -34z m-2244 32 c3 -5 1 -10 -4 -10 -6 0 -11 5 -11 10 0 6 2 10 4 10 3 0
8 -4 11 -10z m2445 4 c0 -8 -19 -13 -24 -6 -3 5 1 9 9 9 8 0 15 -2 15 -3z
m-2960 -8 c0 -2 -18 -6 -39 -8 -22 -2 -37 0 -35 4 5 8 74 11 74 4z m2926 -8
c4 -6 3 -8 -3 -5 -6 4 -22 -2 -36 -13 -14 -11 -33 -20 -44 -20 -11 1 0 11 27
25 25 13 46 24 47 25 1 0 5 -5 9 -12z m-2299 -4 c-3 -3 -12 -4 -19 -1 -8 3 -5
6 6 6 11 1 17 -2 13 -5z m678 -14 c-3 -5 -10 -10 -16 -10 -5 0 -9 5 -9 10 0 6
7 10 16 10 8 0 12 -4 9 -10z m1265 -35 c0 -5 -5 -3 -10 5 -5 8 -10 20 -10 25
0 6 5 3 10 -5 5 -8 10 -19 10 -25z m-1404 13 c4 -7 3 -8 -4 -4 -15 9 -15 1 -2
-25 6 -10 8 -19 6 -19 -10 0 -27 41 -21 50 8 13 12 13 21 -2z m-42 -7 c3 -5
-1 -11 -9 -14 -9 -4 -12 -1 -8 9 6 16 10 17 17 5z m240 3 c20 -7 21 -20 3 -27
-19 -7 -41 8 -33 22 8 13 9 13 30 5z m-522 -22 c-26 -12 -35 -13 -45 -3 -9 10
-9 11 5 6 9 -4 25 -2 35 4 10 6 23 10 28 10 6 0 -5 -8 -23 -17z m-617 -2 c-9
-15 -62 -40 -69 -33 -3 4 -6 1 -6 -5 0 -6 -9 -10 -20 -9 -26 2 -12 15 24 21
15 3 38 12 50 20 25 18 29 19 21 6z m1015 -40 c0 -5 -6 -9 -12 -7 -7 1 -12 -5
-10 -13 3 -12 1 -13 -10 -2 -11 11 -10 14 2 22 19 13 30 12 30 0z m1387 -41
c-11 -14 -16 -17 -19 -7 -3 7 -8 -4 -12 -24 -4 -21 -12 -40 -18 -44 -7 -5 -9
1 -4 19 12 51 26 78 36 72 6 -4 10 -3 9 2 -1 4 -1 15 0 23 1 12 4 12 12 -3 7
-12 6 -23 -4 -38z m-1207 0 c10 -18 9 -20 -12 -17 -12 2 -24 11 -26 21 -5 24
25 22 38 -4z m-2470 -7 c-14 -2 -34 -11 -45 -20 -12 -10 -8 -5 7 10 19 19 33
25 45 20 15 -6 14 -7 -7 -10z m3530 -4 c0 -5 -4 -6 -10 -3 -6 3 -7 -1 -4 -9 4
-11 0 -16 -10 -16 -15 0 -22 30 -10 43 8 8 34 -3 34 -15z m-3465 2 c8 -13 -5
-13 -25 0 -13 8 -13 10 2 10 9 0 20 -4 23 -10z m70 -40 c10 -11 16 -20 13 -20
-3 0 -13 9 -23 20 -10 11 -16 20 -13 20 3 0 13 -9 23 -20z m3579 5 c-4 -8 -1
-15 5 -15 6 0 11 -8 11 -17 0 -14 -3 -13 -16 5 -8 12 -12 27 -9 32 9 15 15 12
9 -5z m52 -8 c0 -13 -7 -24 -13 -24 -16 0 -16 2 -1 27 16 25 16 25 14 -3z
m-2776 -22 c-7 -9 -23 -21 -34 -27 -16 -8 -14 -3 8 21 29 31 51 36 26 6z
m3248 -5 c-5 -17 -14 -33 -19 -36 -5 -3 -9 -14 -9 -26 0 -14 5 -18 15 -14 31
12 14 -21 -20 -37 -37 -18 -50 -10 -40 24 4 12 0 30 -9 44 -15 23 -15 25 -1
25 9 0 27 11 41 25 36 36 56 34 42 -5z m-846 -7 c14 -16 31 -39 37 -53 10 -21
9 -22 -1 -6 -34 50 -61 75 -86 79 l-27 4 26 2 c16 0 34 -9 51 -26z m313 -21
c-3 -3 -11 0 -18 7 -9 10 -8 11 6 5 10 -3 15 -9 12 -12z m-2810 -20 c-3 -3
-11 0 -18 7 -9 10 -8 11 6 5 10 -3 15 -9 12 -12z m1470 8 c3 -5 1 -10 -4 -10
-6 0 -11 5 -11 10 0 6 2 10 4 10 3 0 8 -4 11 -10z m165 -5 c0 -8 -7 -15 -15
-15 -8 0 -15 7 -15 15 0 8 7 15 15 15 8 0 15 -7 15 -15z m1000 0 c0 -1 -6 -7
-13 -13 -10 -8 -13 -6 -13 7 0 11 6 17 13 14 7 -3 13 -6 13 -8z m-2730 -62
c-10 -7 -33 -16 -49 -19 -42 -9 -43 22 -1 31 17 4 32 15 36 27 6 21 7 21 19
-2 11 -21 11 -26 -5 -37z m2702 -45 c-4 -18 -14 -22 -41 -19 -7 2 -10 -2 -6
-8 3 -6 1 -11 -5 -11 -7 0 -9 -8 -5 -21 5 -15 4 -19 -4 -15 -6 4 -11 2 -11 -4
0 -6 -5 -8 -10 -5 -8 5 -7 11 0 20 7 8 8 20 4 26 -5 8 -3 9 6 4 9 -6 10 -1 5
16 -4 17 -3 20 3 10 7 -9 12 -10 16 -2 4 6 12 8 18 5 7 -5 9 -1 5 9 -4 12 -1
15 11 11 14 -5 13 -3 -2 10 -16 12 -22 13 -28 3 -4 -6 -8 -9 -8 -4 0 4 5 16
12 27 12 18 13 18 28 -8 9 -15 15 -35 12 -44z m-121 19 c-13 -12 -20 -15 -16
-7 14 26 28 41 33 35 3 -3 -5 -16 -17 -28z m730 11 c7 -13 19 -28 28 -34 13
-10 13 -14 2 -28 -17 -20 -31 -21 -31 -1 0 16 -36 21 -56 7 -18 -12 -23 -40
-10 -51 7 -6 15 -8 18 -5 3 2 8 -2 11 -9 8 -22 -21 -57 -49 -57 -17 0 -30 -10
-44 -32 -17 -28 -20 -29 -20 -12 0 12 -9 31 -19 43 -23 26 -17 59 14 71 12 4
45 36 74 69 29 34 57 61 62 61 4 0 14 -10 20 -22z m496 -8 c-2 -23 -10 -17
-12 10 -1 10 2 17 6 14 4 -2 7 -13 6 -24z m638 22 l-20 -5 20 -8 c17 -6 17 -8
3 -8 -12 -1 -15 -6 -11 -18 4 -11 3 -14 -5 -9 -7 4 -23 -4 -37 -18 -30 -30
-40 -32 -49 -10 -6 16 18 54 33 52 22 -2 41 3 37 11 -7 10 11 20 34 19 8 0 6
-3 -5 -6z m65 4 c0 -3 -4 -8 -10 -11 -5 -3 -10 -1 -10 4 0 6 5 11 10 11 6 0
10 -2 10 -4z m-4603 -12 c-3 -3 -12 -4 -19 -1 -8 3 -5 6 6 6 11 1 17 -2 13 -5z
m94 -17 c-10 -9 -11 -8 -5 6 3 10 9 15 12 12 3 -3 0 -11 -7 -18z m549 -7 c-8
-5 -19 -10 -25 -10 -5 0 -3 5 5 10 8 5 20 10 25 10 6 0 3 -5 -5 -10z m421 -13
c-10 -9 -11 -8 -5 6 3 10 9 15 12 12 3 -3 0 -11 -7 -18z m669 2 c0 -11 -3 -11
-24 -3 -23 9 -20 23 4 17 11 -3 20 -9 20 -14z m1081 -6 c-12 -20 -14 -14 -5
12 4 9 9 14 11 11 3 -2 0 -13 -6 -23z m-2681 -11 c-17 -6 -30 -22 -30 -37 1
-5 7 -1 15 9 8 11 15 15 15 9 0 -13 -18 -26 -37 -29 -18 -3 -16 3 8 37 12 17
25 26 32 22 7 -4 6 -8 -3 -11z m3750 -18 c0 -19 -28 -30 -42 -16 -6 6 -8 17
-5 26 7 18 47 10 47 -10z m-2739 -1 c13 -17 13 -17 -6 -3 -11 8 -22 16 -24 17
-2 2 0 3 6 3 6 0 17 -8 24 -17z m1789 13 c0 -2 -8 -10 -17 -17 -16 -13 -17
-12 -4 4 13 16 21 21 21 13z m1026 -43 c-5 -12 -10 -13 -17 -6 -8 8 -7 18 2
34 12 21 14 22 17 6 2 -10 1 -25 -2 -34z m-2252 11 c3 -8 2 -12 -4 -9 -6 3
-10 10 -10 16 0 14 7 11 14 -7z m2190 -21 c-10 -59 -22 -75 -52 -71 -22 3 -30
-4 -55 -52 -29 -55 -42 -70 -64 -70 -18 0 -16 25 2 40 8 7 15 28 15 46 0 32 2
34 33 34 26 0 40 9 75 47 23 26 42 51 42 55 0 5 2 8 5 8 3 0 3 -17 -1 -37z
m-1206 -22 c-5 -2 -17 5 -26 14 -10 10 -11 15 -4 11 7 -4 12 -2 12 5 0 7 6 4
14 -7 9 -12 11 -20 4 -23z m1756 -8 c-6 -58 -18 -73 -41 -51 -13 14 -14 20 -4
32 8 9 17 13 22 10 5 -3 9 2 9 11 0 9 -4 14 -9 10 -12 -7 -24 12 -16 25 3 6
14 10 25 10 16 0 17 -6 14 -47z m756 32 c-7 -8 -18 -15 -24 -15 -6 0 -2 7 8
15 25 19 32 19 16 0z m-1260 -34 c0 -6 -4 -13 -10 -16 -5 -3 -10 1 -10 9 0 9
5 16 10 16 6 0 10 -4 10 -9z m-2713 -16 c9 -24 -1 -27 -15 -5 -8 13 -8 20 -2
20 6 0 13 -7 17 -15z m1561 -38 c-6 -25 -15 -44 -19 -42 -4 3 1 25 9 49 21 57
26 53 10 -7z m-2797 -7 c-12 -12 -21 -14 -35 -7 -12 6 -27 5 -44 -3 -23 -10
-24 -9 -12 5 7 8 30 18 51 21 22 4 39 12 39 18 0 6 4 5 9 -3 6 -8 3 -20 -8
-31z m4484 21 c-3 -6 -11 -8 -17 -5 -6 4 -5 9 3 15 16 10 23 4 14 -10z m-3279
-30 c-11 -18 -36 -13 -36 7 0 10 3 22 7 26 10 10 37 -20 29 -33z m-681 -25 c0
-25 -16 -30 -40 -11 -17 13 -18 16 -5 25 22 15 45 8 45 -14z m4850 -15 c-4
-17 -11 -33 -16 -36 -5 -4 -7 0 -5 7 3 7 7 26 11 42 3 15 8 26 11 23 3 -3 3
-19 -1 -36z m-4555 25 c0 -3 -4 -8 -10 -11 -5 -3 -10 -1 -10 4 0 6 5 11 10 11
6 0 10 -2 10 -4z m3666 -32 c-4 -14 -9 -24 -12 -21 -3 2 -2 17 2 31 3 15 9 25
11 22 3 -3 2 -17 -1 -32z m-49 12 c-3 -8 -1 -17 6 -20 9 -3 9 -5 0 -5 -7 -1
-17 8 -23 19 -9 16 -8 20 6 20 10 0 14 -5 11 -14z m-1192 -38 c-1 -17 -10 -37
-20 -45 -23 -16 -43 -17 -27 -1 13 13 16 32 4 24 -4 -2 -8 5 -9 17 0 12 1 17
4 10 3 -8 11 -5 24 8 25 25 26 24 24 -13z m1843 2 c-7 -10 -14 -17 -17 -15 -4
4 18 35 25 35 2 0 -1 -9 -8 -20z m-4470 -12 c18 -18 15 -38 -5 -38 -28 0 -44
15 -37 33 7 20 25 22 42 5z m662 -7 c0 -13 -26 -32 -33 -24 -8 7 11 33 24 33
5 0 9 -4 9 -9z m500 -22 c0 -6 -4 -7 -10 -4 -5 3 -10 11 -10 16 0 6 5 7 10 4
6 -3 10 -11 10 -16z m1914 15 c14 -5 14 -9 -1 -35 -10 -16 -35 -37 -55 -47
-29 -13 -41 -26 -50 -55 -6 -21 -14 -34 -17 -29 -3 5 -14 11 -23 15 -36 13
-12 56 32 60 15 1 29 16 46 49 24 47 36 54 68 42z m771 -4 c-3 -5 2 -10 11
-10 10 0 15 -3 11 -6 -10 -10 -39 5 -32 16 3 5 8 10 11 10 3 0 2 -4 -1 -10z
m-860 -35 c0 -14 -6 -19 -20 -17 -26 5 -27 6 -19 26 9 23 39 16 39 -9z m-4114
-38 c-6 -6 -17 -12 -24 -12 -7 0 -12 -8 -12 -18 0 -10 -7 -22 -15 -27 -28 -15
-60 -21 -60 -12 0 9 37 25 53 23 4 -1 7 5 7 13 0 16 50 59 58 51 3 -3 0 -11
-7 -18z m3222 8 c-3 -9 -8 -14 -10 -11 -3 3 -2 9 2 15 9 16 15 13 8 -4z m2584
-7 c-3 -8 -6 -5 -6 6 -1 11 2 17 5 13 3 -3 4 -12 1 -19z m-4730 6 c-3 -3 -12
-4 -19 -1 -8 3 -5 6 6 6 11 1 17 -2 13 -5z m1793 -29 c0 -5 -5 -3 -10 5 -5 8
-10 20 -10 25 0 6 5 3 10 -5 5 -8 10 -19 10 -25z m-1582 5 c3 -9 -1 -11 -12
-7 -10 4 -16 1 -16 -8 0 -18 -45 -20 -56 -3 -4 6 1 17 10 24 22 15 68 12 74
-6z m955 -18 c4 -21 3 -31 -3 -27 -6 3 -10 20 -10 37 0 38 5 34 13 -10z m593
18 c0 -11 -4 -20 -8 -20 -4 0 -8 9 -8 20 0 11 4 20 8 20 4 0 8 -9 8 -20z
m-2385 1 c-8 -5 -21 -7 -29 -3 -8 3 -21 -3 -28 -13 -8 -10 -14 -14 -14 -9 0
19 24 34 55 34 21 0 26 -3 16 -9z m2739 0 c0 -5 2 -16 6 -24 3 -9 -5 -18 -23
-24 -106 -38 -128 -39 -107 -5 6 9 27 22 47 27 20 6 42 16 49 23 14 14 28 16
28 3z m1030 6 c0 -2 -10 -12 -22 -23 l-23 -19 19 23 c18 21 26 27 26 19z m795
-6 c3 -5 0 -13 -6 -17 -7 -4 -9 -3 -5 4 3 5 0 13 -6 15 -9 4 -10 6 -1 6 6 1
14 -3 18 -8z m253 -8 c-2 -10 3 -23 12 -30 13 -10 13 -15 2 -34 -12 -19 -12
-21 2 -16 28 11 17 -14 -24 -60 -23 -24 -38 -48 -35 -53 7 -11 -50 -2 -77 12
-21 10 -25 30 -5 22 7 -2 18 7 25 23 10 23 11 24 8 5 -3 -17 -1 -22 9 -18 9 3
12 0 8 -9 -3 -8 -9 -13 -13 -10 -5 3 -11 1 -15 -5 -3 -5 0 -10 8 -10 8 0 27
16 42 35 22 30 26 45 25 93 -2 74 -3 72 16 72 9 0 14 -7 12 -17z m-5165 0 c-7
-2 -19 -2 -25 0 -7 3 -2 5 12 5 14 0 19 -2 13 -5z m82 -20 c3 -10 0 -11 -13
-5 -9 5 -24 12 -32 15 -8 3 -3 5 12 4 15 -1 30 -7 33 -14z m977 -5 c-6 -6 -15
-8 -19 -4 -4 4 -1 11 7 16 19 12 27 3 12 -12z m3541 -8 c3 -11 2 -18 -3 -15
-4 3 -10 -4 -13 -15 -3 -14 -14 -20 -32 -20 -31 0 -30 8 5 48 27 32 35 33 43
2z m472 -1 c0 -7 -8 -15 -17 -17 -18 -3 -25 18 -11 32 10 10 28 1 28 -15z
m-3771 -5 c23 -9 20 -44 -3 -44 -22 0 -45 25 -36 40 7 11 17 13 39 4z m-70
-13 c10 -15 -4 -39 -26 -44 -16 -5 -18 -3 -9 6 6 6 11 19 11 29 0 19 15 24 24
9z m116 -7 c0 -8 -5 -12 -10 -9 -6 4 -8 11 -5 16 9 14 15 11 15 -7z m2564 -5
c8 -12 19 -18 26 -14 6 4 18 4 27 1 14 -6 14 -9 -2 -26 -22 -24 -34 -25 -49
-5 -10 13 -16 12 -48 -10 -21 -14 -38 -31 -38 -37 0 -9 3 -9 12 0 15 15 48 16
48 0 0 -20 -32 -48 -56 -48 -14 0 -31 12 -44 31 l-22 30 53 49 c30 27 59 49
66 50 6 0 19 -9 27 -21z m-984 1 c24 -15 7 -18 -25 -4 -23 10 -25 13 -10 13
11 1 27 -3 35 -9z m1591 -26 c12 -14 9 -20 -16 -40 -17 -13 -36 -24 -43 -24
-6 0 -22 -11 -34 -25 -24 -28 -56 -33 -65 -9 -9 23 13 39 52 35 30 -2 35 0 35
20 0 25 26 59 45 59 7 0 19 -7 26 -16z m-1456 -34 c-9 -18 -15 -40 -12 -50 3
-13 -1 -18 -13 -17 -15 1 -17 5 -8 20 7 14 7 17 -1 13 -6 -4 -11 0 -11 9 0 9
-4 14 -8 11 -4 -2 -14 5 -21 16 l-13 21 35 -21 35 -20 12 29 c7 16 15 28 17
25 2 -2 -3 -19 -12 -36z m2165 26 c0 -2 -8 -10 -17 -17 -16 -13 -17 -12 -4 4
13 16 21 21 21 13z m-3842 -40 c6 -31 -43 -50 -54 -21 -8 20 15 47 35 43 9 -2
17 -12 19 -22z m4122 -4 c-1 -9 -7 -28 -14 -40 -12 -22 -14 -23 -29 -7 -26 25
-19 56 13 67 20 7 30 0 30 -20z m-3770 14 c0 -2 -12 -11 -27 -20 l-28 -17 24
20 c23 21 31 25 31 17z m763 -38 c-3 -16 -9 -28 -14 -28 -4 0 -3 14 3 31 12
36 18 35 11 -3z m1254 -35 c1 -59 0 -63 -23 -69 -34 -9 -41 2 -19 26 10 11 16
23 13 26 -7 7 -48 -18 -48 -28 0 -5 -9 -8 -20 -8 -29 0 -24 26 10 50 17 12 30
29 30 39 0 24 10 32 35 29 17 -3 20 -11 22 -65z m-618 19 c-6 -18 -15 -32 -20
-32 -5 0 -1 16 8 35 20 42 27 40 12 -3z m2019 -3 c-18 -11 -23 7 -6 25 11 12
13 12 16 -1 2 -9 -2 -19 -10 -24z m-2797 18 c-6 -8 -8 -16 -5 -19 3 -3 0 -9
-7 -14 -8 -4 -10 -3 -5 4 4 7 1 12 -6 12 -8 1 -6 6 6 15 25 19 32 19 17 2z
m734 -11 c0 -14 -5 -22 -12 -19 -9 4 -10 10 -2 24 13 24 14 24 14 -5z m-2770
5 c3 -5 1 -12 -5 -16 -5 -3 -10 1 -10 9 0 18 6 21 15 7z m3313 -28 c-3 -26 -6
-28 -43 -25 -22 2 -42 6 -45 9 -6 5 29 26 48 29 8 2 16 5 20 8 13 14 23 4 20
-21z m-1421 -20 c-3 -10 -5 -4 -5 12 0 17 2 24 5 18 2 -7 2 -21 0 -30z m-1007
2 c0 -8 8 -15 18 -16 10 0 12 -3 4 -6 -6 -2 -9 -10 -5 -16 4 -7 0 -6 -10 1 -9
8 -22 10 -28 6 -9 -5 -10 -2 -6 9 4 11 2 14 -9 10 -10 -4 -12 0 -8 11 8 20 44
21 44 1z m1280 5 c0 -5 -5 -10 -11 -10 -5 0 -7 5 -4 10 3 6 8 10 11 10 2 0 4
-4 4 -10z m1934 -27 c-16 -13 -37 -31 -46 -40 -14 -12 -18 -13 -18 -3 0 7 -3
10 -7 7 -3 -4 -11 0 -17 9 -7 9 -18 12 -29 8 -14 -5 -15 -9 -6 -20 7 -8 7 -14
1 -14 -22 0 -31 25 -19 50 15 30 64 36 59 8 -4 -24 16 -22 58 6 44 30 63 21
24 -11z m-3294 5 l25 -4 -27 -8 c-16 -5 -35 -5 -44 -2 -13 5 -14 9 -4 22 8 8
16 11 19 5 3 -5 17 -11 31 -13z m1220 -3 c-13 -14 -26 -23 -28 -20 -4 4 38 44
47 45 3 0 -6 -11 -19 -25z m1660 21 c0 -3 -4 -8 -10 -11 -5 -3 -10 -1 -10 4 0
6 5 11 10 11 6 0 10 -2 10 -4z m18 -13 c-4 -26 -58 -56 -58 -33 0 6 7 10 15
10 8 0 20 9 27 20 16 25 20 25 16 3z m104 -25 c-13 -13 -75 -6 -80 10 -2 6 4
12 13 12 9 0 13 -4 10 -10 -3 -5 1 -10 10 -10 9 0 14 4 11 9 -9 14 17 20 32 8
8 -6 9 -14 4 -19z m1669 9 c-10 -9 -11 -8 -5 6 3 10 9 15 12 12 3 -3 0 -11 -7
-18z m-4511 -7 c6 -11 7 -20 2 -20 -6 0 -12 9 -15 20 -3 11 -3 20 -1 20 2 0 8
-9 14 -20z m1196 1 c0 -11 -5 -19 -11 -18 -5 1 -9 -6 -7 -15 1 -9 -2 -19 -8
-23 -6 -4 -7 1 -3 11 4 11 3 15 -4 11 -7 -4 -10 0 -8 10 2 10 4 22 4 26 1 5 6
5 11 2 6 -3 10 -1 10 4 0 6 4 11 8 11 4 0 8 -9 8 -19z m535 6 c-6 -8 -9 -22
-7 -33 2 -10 -2 -25 -10 -32 -8 -7 -14 -8 -14 -2 0 6 -7 6 -19 -2 -11 -7 -17
-16 -14 -22 3 -5 1 -6 -5 -2 -17 10 -15 26 3 26 7 0 19 8 24 18 8 12 10 13 11
3 0 -8 3 -11 7 -8 3 4 -2 17 -13 29 -16 18 -16 20 -2 15 9 -3 22 1 28 9 7 8
15 14 17 14 3 0 1 -6 -6 -13z m934 3 c3 -5 0 -10 -7 -10 -10 0 -10 -2 -1 -8 8
-5 10 -17 5 -37 -7 -23 -15 -31 -38 -33 -16 -2 -35 -9 -43 -15 -12 -10 -13 -9
-8 7 6 14 4 17 -8 12 -10 -3 -13 -2 -10 5 4 6 12 8 19 6 7 -3 23 2 37 10 23
14 23 14 -16 8 -39 -5 -39 -5 -15 9 15 10 19 16 10 16 -10 0 -7 7 10 20 27 21
55 26 65 10z m266 1 c-8 -5 -10 -14 -5 -22 7 -12 5 -12 -9 0 -19 15 -14 31 11
31 14 0 14 -2 3 -9z m-2890 -31 c6 0 7 6 3 13 -6 9 -5 9 8 0 8 -7 17 -12 19
-10 2 1 -2 -3 -9 -10 -19 -16 -42 -5 -41 21 1 16 2 17 6 4 2 -10 9 -18 14 -18z
m864 20 c-3 -5 -12 -10 -18 -10 -7 0 -6 4 3 10 19 12 23 12 15 0z m-1185 -8
c0 -5 15 -7 33 -5 31 3 31 3 7 -8 -14 -6 -37 -12 -51 -13 -34 -3 -82 -34 -76
-49 3 -7 9 -11 15 -10 6 2 14 -7 18 -19 10 -31 -30 -59 -62 -44 -28 13 -30 23
-6 49 16 19 16 19 -5 13 -15 -5 -23 -3 -23 4 0 6 10 10 22 8 14 -2 34 10 62
39 38 39 66 54 66 35z m214 -12 c15 -5 26 -17 25 -27 0 -10 -3 -13 -5 -7 -3 8
-16 9 -39 4 -28 -6 -34 -4 -38 11 -8 30 11 37 57 19z m4557 -13 c-10 -9 -11
-8 -5 6 3 10 9 15 12 12 3 -3 0 -11 -7 -18z m-4360 -14 c-12 -20 -14 -14 -5
12 4 9 9 14 11 11 3 -2 0 -13 -6 -23z m2406 7 c1 -11 -7 -26 -18 -34 -15 -10
-17 -15 -7 -19 8 -3 3 -9 -14 -17 -16 -7 -28 -18 -28 -23 0 -6 -3 -8 -6 -4 -4
3 -13 0 -21 -8 -8 -8 -19 -15 -24 -15 -15 0 14 40 33 46 10 3 18 10 18 16 0 6
-6 6 -15 -2 -9 -8 -15 -8 -15 -2 0 6 12 20 28 31 17 13 22 21 12 21 -9 0 -5 6
10 15 34 20 45 18 47 -5z m-2737 -10 c9 -17 7 -24 -12 -40 -27 -22 -54 -26
-61 -7 -4 9 -8 9 -15 -2 -8 -11 -12 -10 -21 6 -12 23 -6 34 15 26 7 -3 25 5
40 16 33 26 41 26 54 1z m1977 -2 c-8 -13 -20 -22 -26 -20 -6 1 -11 -2 -11 -7
0 -5 -7 -11 -15 -15 -11 -4 -9 3 6 24 12 16 26 27 30 24 4 -2 10 0 14 6 3 5 9
10 12 10 3 0 -1 -10 -10 -22z m1033 17 c0 -2 -13 -11 -30 -20 -29 -15 -30 -15
-30 5 0 16 7 20 30 20 17 0 30 -2 30 -5z m-93 -11 c-3 -3 -12 -4 -19 -1 -8 3
-5 6 6 6 11 1 17 -2 13 -5z m176 -19 c-21 -16 -26 -14 -17 8 3 9 12 13 20 10
12 -4 11 -8 -3 -18z m-4585 -72 c11 -35 19 -63 16 -63 -8 0 -64 123 -64 140 0
30 27 -14 48 -77z m1752 77 c8 -5 11 -10 5 -10 -5 0 -17 5 -25 10 -8 5 -10 10
-5 10 6 0 17 -5 25 -10z m1081 -17 c-6 -10 -11 -14 -11 -9 0 5 -7 3 -15 -4 -8
-7 -12 -16 -9 -21 3 -5 2 -8 -3 -7 -16 6 -65 -41 -57 -54 6 -10 4 -10 -9 1
-13 10 -14 17 -6 33 9 17 13 18 20 7 7 -12 14 -7 7 5 -4 5 86 75 90 71 2 -2
-1 -12 -7 -22z m689 8 c-5 -11 -15 -23 -22 -27 -7 -5 -8 -2 -3 7 21 37 44 55
25 20z m478 2 c-4 -22 -48 -31 -48 -10 0 19 10 27 32 27 13 0 18 -6 16 -17z
m-2833 -9 c0 -5 -8 -10 -17 -12 -11 -2 -18 3 -18 11 0 9 8 14 18 13 9 -2 17
-7 17 -12z m742 3 c-2 -7 -10 -11 -17 -9 -7 2 -17 -3 -21 -10 -7 -10 -11 -10
-21 1 -11 11 -11 13 1 6 10 -6 13 -4 9 6 -4 10 3 15 24 16 20 2 28 -2 25 -10z
m793 3 c0 -5 -2 -10 -4 -10 -3 0 -8 5 -11 10 -3 6 -1 10 4 10 6 0 11 -4 11
-10z m30 -15 c5 3 11 1 15 -5 3 -5 -3 -10 -14 -10 -14 0 -21 6 -20 18 0 10 3
12 6 4 2 -6 9 -10 13 -7z m1390 -9 c0 -27 -16 -43 -23 -24 -2 7 -7 -2 -11 -20
-5 -21 -17 -37 -34 -46 -27 -13 -92 -29 -92 -22 0 3 -3 11 -6 20 -5 13 1 16
31 16 33 0 36 2 24 16 -11 14 -11 18 4 29 9 6 14 15 11 18 -3 3 3 3 15 0 24
-6 26 -14 9 -31 -7 -7 -8 -12 -2 -12 15 0 34 22 34 40 0 17 18 40 32 40 4 0 8
-11 8 -24z m570 20 c0 -19 -16 -36 -34 -36 -20 1 -20 1 3 14 18 10 20 15 10
19 -10 4 -9 6 4 6 9 1 17 -1 17 -3z m1000 -12 c0 -8 -5 -12 -10 -9 -6 4 -8 11
-5 16 9 14 15 11 15 -7z m95 6 c4 -6 -3 -26 -15 -45 -23 -36 -19 -46 7 -20 8
8 19 13 24 10 5 -4 9 -1 9 4 0 6 4 11 9 11 5 0 7 -9 4 -20 -5 -21 11 -28 22
-10 10 17 22 11 29 -12 5 -22 6 -22 21 -3 14 19 15 18 5 -8 -16 -46 -130 -290
-152 -325 -11 -18 -18 -35 -15 -38 3 -3 31 38 64 91 83 138 80 134 89 110 4
-11 10 -22 14 -25 28 -24 26 -94 -9 -210 -8 -28 -7 -31 2 -16 40 63 55 81 67
78 7 -2 10 3 7 11 -3 7 6 24 20 37 l24 23 -23 -47 c-12 -26 -24 -42 -26 -36
-3 7 -10 4 -18 -7 -19 -25 -17 -41 2 -17 15 18 15 18 10 0 -14 -41 22 6 53 70
17 36 36 62 41 59 6 -3 7 1 4 9 -3 9 -10 13 -16 10 -5 -3 -3 8 6 24 20 38 20
46 1 38 -22 -8 -19 4 29 107 46 99 66 124 67 85 l0 -23 9 23 c5 12 12 22 15
22 7 0 -11 -41 -60 -142 -20 -43 -35 -83 -33 -90 2 -6 14 10 27 36 12 27 24
46 27 43 6 -6 -15 -53 -43 -96 -13 -18 -20 -37 -17 -42 3 -5 -10 -32 -29 -61
-53 -85 -110 -191 -98 -184 16 10 14 -9 -3 -23 -8 -7 -24 -31 -36 -54 -58
-111 -224 -322 -356 -453 -135 -133 -370 -312 -494 -375 -60 -31 -75 -32 -77
-9 -1 11 3 20 8 20 6 0 8 4 4 9 -3 5 0 13 6 17 8 5 9 3 4 -7 -9 -15 -6 -13 40
40 l30 35 -27 -17 c-40 -25 -47 -21 -10 7 18 13 43 35 57 50 14 15 25 24 25
21 0 -13 58 26 95 64 42 44 40 53 -3 23 -38 -27 -52 -34 -52 -28 0 3 30 27 68
53 37 26 69 52 71 56 2 5 7 4 10 -2 8 -12 91 53 91 71 0 6 16 35 35 64 19 29
35 56 35 60 0 4 11 19 23 33 27 29 53 88 43 98 -3 3 -14 -1 -23 -9 -31 -27
-64 -40 -76 -31 -7 5 -16 9 -22 8 -21 -3 -63 -24 -70 -35 -3 -5 -22 -17 -41
-25 -20 -8 -54 -30 -76 -49 -23 -20 -46 -32 -52 -28 -7 4 -5 8 7 10 9 2 17 7
17 12 0 4 21 20 46 35 25 15 43 29 40 32 -2 3 -15 -2 -28 -11 -12 -9 -30 -16
-40 -16 -10 0 -18 -5 -18 -11 0 -5 -5 -7 -12 -3 -8 5 -6 11 6 20 10 7 13 15 8
18 -6 3 -8 15 -5 26 4 16 0 20 -20 20 -36 0 -57 10 -57 26 0 11 -11 13 -50 10
-27 -3 -50 -3 -50 -2 0 2 7 20 15 39 17 41 12 63 -16 70 -23 6 -26 53 -4 81 8
11 15 34 15 51 0 19 8 39 20 50 24 22 27 75 5 75 -8 0 -15 6 -15 14 0 7 7 19
15 26 20 16 19 54 -1 71 -8 7 -22 25 -30 41 -13 26 -11 32 9 29 4 0 7 12 7 28
l0 28 73 -12 c39 -7 79 -9 87 -5 29 16 79 76 95 113 12 29 20 37 34 32 10 -3
24 1 31 10 18 22 30 18 30 -9 0 -29 -41 -121 -92 -204 -42 -69 -44 -77 -24
-85 8 -3 16 -21 18 -39 l4 -33 49 51 c72 74 172 225 196 297 18 55 54 105 66
93 2 -2 -7 -31 -21 -64 -50 -118 -44 -190 15 -178 19 4 29 1 29 -7 1 -6 9 2
18 18 9 17 36 56 60 88 46 62 49 69 27 61 -13 -5 -14 -2 -5 21 15 39 43 85 52
85 4 0 10 -5 13 -10z m180 -76 c-14 -39 -39 -85 -56 -104 l-30 -35 26 58 c39
89 76 160 81 154 3 -2 -7 -35 -21 -73z m-5175 51 c0 -8 -4 -15 -10 -15 -5 0
-7 7 -4 15 4 8 8 15 10 15 2 0 4 -7 4 -15z m403 -5 c-3 -11 -9 -17 -15 -14 -5
3 -4 12 3 20 16 19 18 18 12 -6z m2119 -21 c18 -10 20 -9 15 5 -8 19 3 14 40
-18 17 -15 20 -22 11 -28 -9 -5 -5 -8 11 -8 14 0 37 12 53 27 35 33 47 25 13
-9 -32 -33 -137 -56 -119 -26 4 7 3 8 -4 4 -11 -7 -72 19 -72 30 0 3 4 3 9 0
13 -9 21 19 9 35 -7 11 -8 9 -3 -6 4 -14 3 -17 -5 -9 -6 6 -8 19 -4 28 6 16 8
17 16 2 5 -9 18 -21 30 -27z m1018 37 c0 -3 -4 -8 -10 -11 -5 -3 -10 -1 -10 4
0 6 5 11 10 11 6 0 10 -2 10 -4z m-2419 -23 c13 -16 12 -17 -3 -4 -17 13 -22
21 -14 21 2 0 10 -8 17 -17z m1995 -56 c-9 -15 -12 -15 -14 -2 -2 8 -8 15 -13
15 -6 0 -7 -4 -4 -10 3 -5 1 -10 -4 -10 -6 0 -11 5 -11 11 0 5 -4 8 -9 4 -5
-3 -12 -1 -15 4 -7 11 22 23 36 15 6 -4 8 2 3 17 l-7 24 24 -25 c20 -20 23
-29 14 -43z m-2726 28 c0 -2 -10 -10 -22 -16 -21 -11 -22 -11 -9 4 13 16 31
23 31 12z m76 -10 c-1 -8 -13 -23 -26 -35 -41 -35 -37 -23 9 33 17 21 20 21
17 2z m720 -5 c5 1 10 -3 12 -10 5 -13 -20 -9 -30 5 -4 6 -8 15 -8 20 0 6 4 4
9 -3 4 -8 12 -13 17 -12z m878 5 c-4 -8 -8 -15 -10 -15 -2 0 -4 7 -4 15 0 8 4
15 10 15 5 0 7 -7 4 -15z m1372 -4 c0 -11 -4 -18 -7 -15 -4 2 -10 0 -14 -6 -3
-5 -10 -10 -15 -10 -6 0 26 45 35 50 1 0 1 -9 1 -19z m919 -31 c-9 -28 -35
-25 -35 3 0 32 21 52 33 32 4 -9 5 -24 2 -35z m-2910 30 c3 -5 1 -10 -4 -10
-6 0 -11 -5 -11 -11 0 -6 7 -9 15 -5 26 10 16 -1 -20 -23 -19 -11 -37 -16 -40
-11 -3 4 -21 4 -41 -2 -25 -6 -40 -6 -47 1 -12 12 -8 13 62 31 35 9 46 9 53
-2 7 -9 8 -8 4 5 -10 30 14 52 29 27z m590 -15 c-1 -14 -11 -32 -21 -40 -22
-16 -26 -17 -48 -9 -23 9 -20 19 6 21 13 1 31 14 41 28 23 31 26 31 22 0z
m387 16 c7 11 8 9 4 -5 -5 -14 -2 -17 10 -12 14 5 15 4 4 -9 -10 -12 -8 -16
14 -26 14 -7 26 -17 26 -23 0 -6 -5 -5 -12 2 -7 7 -16 12 -21 12 -5 0 2 -9 17
-21 33 -26 34 -42 1 -27 -14 6 -25 15 -25 20 0 4 -5 8 -11 8 -5 0 -7 -6 -3
-12 4 -8 2 -8 -7 1 -9 9 -10 15 -3 18 12 4 7 50 -7 59 -5 3 -9 11 -8 17 0 8 3
7 6 -2 5 -11 7 -11 15 0z m-2012 -21 c0 -5 -7 -7 -15 -4 -8 4 -15 8 -15 10 0
2 7 4 15 4 8 0 15 -4 15 -10z m2725 0 c3 -5 1 -10 -4 -10 -6 0 -11 5 -11 10 0
6 2 10 4 10 3 0 8 -4 11 -10z m882 -12 c-3 -8 -6 -5 -6 6 -1 11 2 17 5 13 3
-3 4 -12 1 -19z m-3412 3 c3 -6 -4 -9 -15 -8 -11 1 -20 5 -20 9 0 11 28 10 35
-1z m503 -2 c-2 -6 -8 -10 -13 -10 -5 0 -11 4 -13 10 -2 6 4 11 13 11 9 0 15
-5 13 -11z m142 1 c8 -5 12 -11 9 -14 -3 -3 -14 1 -25 9 -21 16 -8 20 16 5z
m2117 -3 c-4 -14 -47 -29 -47 -17 0 6 7 10 16 10 8 0 13 4 10 8 -3 5 2 9 10 9
8 0 13 -5 11 -10z m-3397 -19 c0 -4 -4 -8 -9 -8 -6 0 -12 4 -15 8 -3 5 1 9 9
9 8 0 15 -4 15 -9z m540 2 c12 -8 12 -11 -3 -28 -9 -10 -14 -21 -11 -25 4 -4
-3 -5 -14 -2 -13 2 -25 -3 -31 -13 -18 -32 -18 -7 0 36 18 42 31 50 59 32z
m4861 -13 c-10 -9 -11 -8 -5 6 3 10 9 15 12 12 3 -3 0 -11 -7 -18z m-3895 1
c4 -6 3 -8 -4 -4 -5 3 -13 0 -15 -6 -3 -8 -6 -6 -6 5 -1 19 14 23 25 5z m-36
-13 c0 -17 -114 -42 -124 -27 -3 5 9 9 27 10 26 1 58 9 95 21 1 1 2 -1 2 -4z
m1781 -28 c-10 -9 -11 -8 -5 6 3 10 9 15 12 12 3 -3 0 -11 -7 -18z m-3161 9
c0 -2 -7 -6 -15 -10 -8 -3 -15 -1 -15 4 0 6 7 10 15 10 8 0 15 -2 15 -4z
m2510 -20 c0 -9 -39 -13 -51 -5 -10 6 -4 9 19 9 17 0 32 -2 32 -4z m1660 -34
c0 -12 -3 -12 -15 -2 -8 7 -15 13 -15 15 0 1 7 2 15 2 8 0 15 -7 15 -15z
m-2713 -7 c0 -8 -4 -12 -9 -9 -5 3 -6 10 -3 15 9 13 12 11 12 -6z m-120 -17
c-3 -8 -6 -5 -6 6 -1 11 2 17 5 13 3 -3 4 -12 1 -19z m2403 -9 c7 -11 16 -16
27 -12 11 4 14 2 11 -8 -3 -8 -11 -14 -19 -14 -8 0 -29 -4 -47 -9 -37 -9 -62
5 -62 35 0 38 71 45 90 8z m-4353 -5 c-3 -3 -12 -4 -19 -1 -8 3 -5 6 6 6 11 1
17 -2 13 -5z m4435 -96 c22 -22 23 -56 3 -78 -14 -15 -14 -19 1 -31 15 -12 16
-11 11 11 -4 14 -4 20 -1 13 3 -7 12 -9 21 -6 13 5 14 3 4 -16 -16 -30 -44
-20 -99 33 l-43 41 31 27 c33 31 44 31 72 6z m-367 -3 c-16 -7 -32 -11 -35 -9
-7 8 24 24 45 23 15 0 13 -4 -10 -14z m-2002 -2 c-20 -7 -15 -23 5 -16 15 6
15 5 4 -10 -8 -9 -11 -21 -8 -26 4 -5 1 -13 -6 -17 -7 -4 -10 -4 -6 1 4 4 3
16 -3 27 -12 23 -5 48 13 47 10 0 10 -2 1 -6z m2117 -3 c0 -5 -5 -10 -11 -10
-5 0 -7 5 -4 10 3 6 8 10 11 10 2 0 4 -4 4 -10z m49 7 c-2 -1 -12 -9 -22 -16
-15 -12 -17 -12 -11 3 3 9 13 16 22 16 8 0 13 -1 11 -3z m-239 -18 c0 -11 -29
-19 -68 -19 -32 0 -34 1 -18 13 18 13 86 18 86 6z m-4024 -24 c-14 -14 -16
-14 -16 -2 0 9 6 17 13 20 19 7 21 -1 3 -18z m4172 18 c-10 -2 -26 -2 -35 0
-10 3 -2 5 17 5 19 0 27 -2 18 -5z m-28 -35 c0 -5 -4 -7 -9 -4 -5 3 -8 -1 -7
-10 2 -27 -28 -40 -59 -26 -22 10 -25 15 -15 27 7 8 21 15 31 15 10 0 20 4 24
10 7 11 35 2 35 -12z m189 8 c10 -12 8 -13 -8 -9 -12 3 -21 9 -21 14 0 14 16
11 29 -5z m-469 -6 c0 -5 -8 -10 -17 -10 -15 0 -16 2 -3 10 19 12 20 12 20 0z
m150 -11 c0 -5 -7 -12 -15 -15 -8 -4 -13 -10 -10 -14 3 -5 0 -12 -6 -16 -8 -4
-9 -3 -5 4 4 7 3 12 -3 12 -5 0 -13 -4 -16 -10 -12 -20 -26 -10 -15 10 6 11 7
20 3 20 -4 1 3 7 16 14 25 14 51 11 51 -5z m-110 7 c0 -2 -7 -7 -16 -10 -8 -3
-12 -2 -9 4 6 10 25 14 25 6z m365 -6 c3 5 12 10 18 10 7 0 6 -4 -3 -10 -12
-7 -12 -12 4 -29 17 -19 17 -20 -28 -26 -25 -4 -44 -11 -41 -15 3 -4 -7 -7
-21 -7 -19 0 -22 2 -13 8 11 7 9 10 -8 15 -28 8 -30 24 -3 24 30 0 70 22 63
34 -4 6 0 5 9 -2 11 -9 18 -10 23 -2z m-4125 -21 c0 -6 -4 -7 -10 -4 -5 3 -10
11 -10 16 0 6 5 7 10 4 6 -3 10 -11 10 -16z m44 5 c3 -8 2 -12 -4 -9 -6 3 -10
10 -10 16 0 14 7 11 14 -7z m4376 12 c0 -3 -4 -8 -10 -11 -5 -3 -10 -1 -10 4
0 6 5 11 10 11 6 0 10 -2 10 -4z m-3032 -15 c11 -7 11 -9 -1 -14 -16 -6 -27 0
-27 15 0 10 11 10 28 -1z m2332 1 c0 -4 -9 -13 -20 -20 -24 -15 -26 -9 -4 12
17 18 24 20 24 8z m65 -2 c-3 -5 -12 -10 -18 -10 -7 0 -6 4 3 10 19 12 23 12
15 0z m-1665 -21 c0 -5 -9 -9 -20 -9 -11 0 -20 4 -20 8 0 4 9 8 20 9 11 1 20
-2 20 -8z m2300 2 c0 -5 -7 -12 -16 -15 -14 -5 -15 -4 -4 9 14 17 20 19 20 6z
m-670 -16 c-14 -17 -30 -20 -30 -4 0 5 4 8 9 4 5 -3 12 -1 16 5 3 5 9 10 12
10 3 0 0 -7 -7 -15z m-1818 -27 c-7 -7 -12 -8 -12 -2 0 6 3 14 7 17 3 4 9 5
12 2 2 -3 -1 -11 -7 -17z m243 0 c-16 -6 -13 -7 11 -5 24 2 31 -1 29 -12 -3
-24 -20 -23 -48 3 -14 13 -29 21 -33 17 -4 -3 -4 -1 -1 5 4 6 19 9 34 6 25 -5
26 -6 8 -14z m2305 14 c0 -5 -7 -9 -15 -9 -8 0 -12 4 -9 9 3 4 9 8 15 8 5 0 9
-4 9 -8z m-2517 -22 c-3 -11 -9 -20 -14 -20 -11 0 -11 3 -3 24 9 23 23 20 17
-4z m49 -5 c-2 -14 -9 -28 -15 -32 -6 -4 -7 -1 -2 7 6 10 4 12 -10 7 -13 -6
-12 -1 6 18 13 13 25 25 25 25 1 0 -1 -11 -4 -25z m63 15 c-3 -5 -11 -10 -16
-10 -6 0 -7 5 -4 10 3 6 11 10 16 10 6 0 7 -4 4 -10z m29 -53 c-8 -22 -53 -22
-61 -1 -6 16 15 37 29 28 4 -3 8 1 8 8 0 9 4 8 15 -3 9 -9 13 -23 9 -32z
m1846 33 c0 -5 -5 -10 -11 -10 -5 0 -7 5 -4 10 3 6 8 10 11 10 2 0 4 -4 4 -10z
m96 -15 c-31 -28 -36 -30 -36 -12 0 7 10 17 23 23 37 19 41 15 13 -11z m214
15 c18 -11 9 -20 -33 -35 -31 -11 -33 -10 -35 12 -1 13 2 22 6 19 4 -2 14 -1
22 5 19 11 21 11 40 -1z m-4140 -20 c6 -11 8 -20 6 -20 -3 0 -10 9 -16 20 -6
11 -8 20 -6 20 3 0 10 -9 16 -20z m845 10 c3 -5 1 -10 -4 -10 -6 0 -11 5 -11
10 0 6 2 10 4 10 3 0 8 -4 11 -10z m-75 -40 c0 -17 -15 -11 -28 11 -12 19 -11
19 8 9 11 -6 20 -15 20 -20z m1375 20 c-4 -7 3 -9 18 -6 32 6 60 -14 48 -33
-8 -12 -13 -12 -35 3 -14 9 -26 13 -26 9 0 -10 -20 19 -20 30 0 4 5 7 11 7 5
0 7 -5 4 -10z m898 3 c-7 -2 -19 -2 -25 0 -7 3 -2 5 12 5 14 0 19 -2 13 -5z
m951 -15 c-4 -5 5 -3 18 6 23 15 38 13 38 -5 0 -7 -52 -39 -63 -39 -8 0 -16
43 -11 52 3 5 10 6 15 2 5 -3 6 -10 3 -16z m306 18 c0 -3 -4 -8 -10 -11 -5 -3
-10 -1 -10 4 0 6 5 11 10 11 6 0 10 -2 10 -4z m-2241 -25 c13 -12 18 -22 11
-26 -5 -3 -10 -1 -10 6 0 8 -3 9 -13 0 -8 -6 -18 -7 -22 -3 -5 4 -5 2 -1 -5 3
-6 2 -14 -4 -18 -5 -3 -10 3 -10 15 0 11 7 23 15 26 8 4 12 10 9 15 -9 14 1
10 25 -10z m-569 -26 c-7 -8 -17 -15 -23 -15 -6 0 -2 7 9 15 25 19 30 19 14 0z
m592 -25 c-13 -11 -30 -16 -37 -13 -17 6 -19 19 -5 28 6 3 10 1 10 -5 0 -7 8
-5 22 4 30 21 39 9 10 -14z m2072 9 c15 -13 14 -46 0 -46 -7 0 -11 5 -8 11 3
6 -1 3 -9 -6 -22 -27 -30 -21 -23 16 5 23 2 36 -6 40 -7 3 -2 3 12 0 14 -4 29
-10 34 -15z m-1124 -9 c-6 -11 -13 -20 -16 -20 -2 0 0 9 6 20 6 11 13 20 16
20 2 0 0 -9 -6 -20z m-2220 -10 c0 -5 -4 -10 -10 -10 -5 0 -10 5 -10 10 0 6 5
10 10 10 6 0 10 -4 10 -10z m2253 -19 c-3 -10 -15 -21 -28 -23 -20 -4 -22 -3
-12 13 6 10 15 15 19 13 4 -3 8 2 8 11 0 9 4 14 9 11 5 -3 7 -15 4 -25z m900
14 c-3 -9 -8 -14 -10 -11 -3 3 -2 9 2 15 9 16 15 13 8 -4z m97 -2 c0 -15 2
-16 10 -3 8 13 10 13 10 -2 0 -9 -12 -23 -27 -30 -28 -14 -28 -14 -26 17 2 38
0 35 18 35 8 0 15 -8 15 -17z m-3544 -19 c18 -15 18 -15 -4 -11 -14 4 -33 -3
-51 -19 -30 -25 -44 -23 -34 4 16 45 53 55 89 26z m1694 -14 c6 -11 7 -20 3
-19 -20 3 -27 -2 -13 -11 11 -7 5 -9 -21 -8 -25 1 -40 8 -49 22 -11 18 -11 19
1 10 23 -17 64 -12 63 9 -2 22 3 22 16 -3z m1805 10 c3 -5 1 -10 -4 -10 -6 0
-11 5 -11 10 0 6 2 10 4 10 3 0 8 -4 11 -10z m-1605 -11 c0 -6 -4 -8 -9 -5 -5
4 -11 1 -13 -6 -3 -8 -6 -7 -10 3 -4 10 1 15 13 16 10 1 19 -3 19 -8z m-1440
-23 c0 -2 -3 -12 -6 -20 -5 -13 -9 -14 -20 -5 -20 16 -17 29 6 29 11 0 20 -2
20 -4z m2088 -36 c9 -26 8 -31 -8 -40 -16 -9 -21 -6 -26 15 -4 15 -1 32 6 40
16 20 16 20 28 -15z m72 26 c0 -2 -7 -9 -15 -16 -13 -11 -14 -10 -9 4 5 14 24
23 24 12z m-2260 -21 c10 -12 10 -15 -2 -15 -8 0 -15 7 -15 15 0 8 1 15 2 15
2 0 8 -7 15 -15z m3191 5 c0 9 4 7 11 -8 9 -18 7 -26 -7 -42 -40 -45 -74 -11
-39 39 13 18 18 20 25 10 7 -11 9 -11 10 1z m99 -2 c0 -12 -39 -48 -51 -48 -6
0 -8 7 -5 16 3 9 6 22 6 29 0 7 10 12 25 11 14 0 25 -4 25 -8z m-2550 -2 c0
-9 -30 -14 -35 -6 -4 6 3 10 14 10 12 0 21 -2 21 -4z m-180 -26 c0 -5 -5 -10
-11 -10 -5 0 -7 5 -4 10 3 6 8 10 11 10 2 0 4 -4 4 -10z m-393 -14 c-5 -16
-22 -17 -41 -3 -16 12 -15 13 13 12 17 0 30 -4 28 -9z m1214 -9 c-10 -9 -11
-8 -5 6 3 10 9 15 12 12 3 -3 0 -11 -7 -18z m756 8 c0 -8 -6 -16 -14 -19 -16
-7 -17 6 -1 22 15 15 15 15 15 -3z m90 -17 c-3 -7 -5 -2 -5 12 0 14 2 19 5 13
2 -7 2 -19 0 -25z m-1647 7 c0 -10 -41 -11 -49 -1 -8 10 -3 11 19 8 17 -2 30
-5 30 -7z m-926 -4 c3 -5 -1 -11 -9 -15 -8 -3 -15 -1 -15 5 0 6 -4 7 -10 4
-18 -11 -11 -24 15 -31 14 -4 24 -9 21 -11 -7 -7 -75 17 -83 29 -4 7 0 9 10 5
8 -3 21 1 27 9 14 16 36 19 44 5z m176 -1 c0 -5 -4 -10 -10 -10 -5 0 -10 5
-10 10 0 6 5 10 10 10 6 0 10 -4 10 -10z m383 -10 c-3 -11 -9 -20 -15 -20 -5
0 -4 9 2 20 6 11 12 20 14 20 2 0 2 -9 -1 -20z m267 10 c0 -5 -5 -10 -11 -10
-5 0 -7 5 -4 10 3 6 8 10 11 10 2 0 4 -4 4 -10z m2349 -4 c10 -12 9 -14 -5
-12 -10 2 -20 8 -22 14 -5 17 13 15 27 -2z m-3132 -2 c-3 -3 -12 -4 -19 -1 -8
3 -5 6 6 6 11 1 17 -2 13 -5z m600 -36 c-3 -7 -5 -2 -5 12 0 14 2 19 5 13 2
-7 2 -19 0 -25z m2857 7 c-5 -11 -2 -14 12 -8 18 6 18 6 1 -14 -9 -11 -23 -20
-30 -20 -11 0 -11 5 0 29 15 30 26 39 17 13z m-3067 -1 c-3 -3 -12 -4 -19 -1
-8 3 -5 6 6 6 11 1 17 -2 13 -5z m2058 -16 c-3 -12 1 -26 8 -30 8 -6 3 -8 -12
-6 -30 4 -37 21 -16 42 22 21 25 20 20 -6z m35 18 c0 -3 -4 -8 -10 -11 -5 -3
-10 -1 -10 4 0 6 5 11 10 11 6 0 10 -2 10 -4z m38 -21 c0 -25 -23 -53 -34 -42
-9 9 6 28 17 21 6 -3 10 0 8 7 -2 19 0 39 5 39 2 0 4 -11 4 -25z m906 13 c-3
-4 -9 -8 -15 -8 -5 0 -9 4 -9 8 0 5 7 9 15 9 8 0 12 -4 9 -9z m136 -1 c0 -8
-11 -19 -25 -25 -33 -15 -30 -15 -32 7 -2 18 12 27 45 30 6 0 12 -5 12 -12z
m-2987 -4 c-7 -2 -19 -2 -25 0 -7 3 -2 5 12 5 14 0 19 -2 13 -5z m127 -6 c0
-9 -11 -12 -37 -8 l-38 5 35 7 c19 3 36 7 38 8 1 0 2 -5 2 -12z m-880 -7 c0
-5 -2 -10 -4 -10 -3 0 -8 5 -11 10 -3 6 -1 10 4 10 6 0 11 -4 11 -10z m964 -1
c-2 -4 -15 -6 -30 -6 -14 0 -21 2 -15 6 5 4 19 7 30 7 11 0 18 -3 15 -7z
m-1134 -19 c6 -11 8 -20 6 -20 -3 0 -10 9 -16 20 -6 11 -8 20 -6 20 3 0 10 -9
16 -20z m205 10 c3 -6 -1 -7 -9 -4 -18 7 -21 14 -7 14 6 0 13 -4 16 -10z m305
0 c11 -7 1 -10 -36 -10 -36 0 -59 -6 -77 -20 -21 -16 -26 -17 -31 -5 -5 14 8
20 89 38 33 8 39 7 55 -3z m3284 -51 c-19 -21 -55 -26 -51 -6 3 17 38 36 54
30 11 -4 10 -9 -3 -24z m-1017 7 c-10 -8 -18 -17 -17 -20 2 -13 -28 -36 -32
-24 -3 7 -13 5 -34 -7 l-29 -17 30 23 c29 24 85 58 95 58 3 0 -3 -6 -13 -13z
m1079 -13 c-2 -10 -13 -20 -27 -22 -24 -3 -24 -3 -5 18 23 26 35 27 32 4z
m-3836 -10 c0 -15 -2 -16 -10 -3 -5 8 -10 10 -10 4 0 -6 -11 -11 -25 -11 -23
0 -24 1 -8 13 26 19 53 17 53 -3z m2355 7 c-3 -5 -11 -10 -16 -10 -6 0 -7 5
-4 10 3 6 11 10 16 10 6 0 7 -4 4 -10z m1538 -5 c-3 -9 -8 -14 -10 -11 -3 3
-2 9 2 15 9 16 15 13 8 -4z m-1083 -3 c0 -5 -6 -17 -14 -28 -14 -18 -15 -18
-22 0 -4 11 -2 21 7 27 18 11 29 11 29 1z m-2450 -18 c0 -2 -9 -4 -21 -4 -11
0 -18 4 -14 10 5 8 35 3 35 -6z m3316 -19 c-3 -8 -1 -15 4 -15 6 0 10 5 10 10
0 6 5 10 11 10 5 0 7 -6 3 -12 -6 -10 -4 -10 8 0 13 10 17 10 22 -3 3 -9 2
-13 -3 -10 -5 3 -17 -5 -25 -17 -25 -36 -19 -41 17 -14 40 31 57 34 32 6 -10
-11 -21 -17 -25 -15 -4 3 -13 -1 -19 -9 -11 -13 -34 -12 -71 1 -8 4 -19 5 -24
4 -5 -1 -4 5 3 13 7 9 16 15 19 14 19 -2 32 3 32 13 0 5 -5 7 -11 4 -6 -4 -5
2 3 14 15 24 23 28 14 6z m141 9 c-3 -3 -12 -4 -19 -1 -8 3 -5 6 6 6 11 1 17
-2 13 -5z m563 -9 c0 -1 -12 -2 -26 -2 -17 0 -22 2 -13 7 10 7 39 3 39 -5z
m-3914 -11 c10 -8 13 -12 6 -9 -8 4 -26 11 -40 15 -22 7 -23 8 -6 9 11 1 29
-6 40 -15z m1942 -29 c-3 -3 -9 2 -12 12 -6 14 -5 15 5 6 7 -7 10 -15 7 -18z
m276 19 c8 -3 12 -12 9 -20 -6 -16 12 -19 22 -4 9 15 22 12 22 -5 0 -8 -2 -13
-5 -10 -2 2 -17 -2 -33 -10 -37 -19 -48 -19 -23 1 12 10 14 14 4 11 -8 -2 -21
3 -29 11 -12 12 -12 15 0 23 17 11 14 10 33 3z m2031 -4 c-3 -5 -11 -10 -16
-10 -6 0 -7 5 -4 10 3 6 11 10 16 10 6 0 7 -4 4 -10z m-935 -35 c-7 -9 -23
-21 -34 -27 -16 -8 -14 -3 8 21 29 31 51 36 26 6z m-2090 -22 c0 -2 -5 -2 -12
0 -18 3 -37 21 -32 29 4 6 44 -21 44 -29z m896 14 c4 -3 -4 -4 -16 -2 -30 6
-40 16 -12 12 12 -2 24 -6 28 -10z m1804 -22 c-18 -19 -35 -33 -38 -31 -4 4
59 65 67 66 3 0 -10 -16 -29 -35z m-815 5 c-3 -5 3 -10 15 -10 17 0 19 -2 8
-14 -7 -8 -16 -12 -20 -10 -3 2 -4 -5 -1 -17 5 -18 7 -19 15 -5 10 18 68 51
68 39 0 -9 -64 -55 -77 -55 -4 0 -17 -5 -28 -11 -11 -6 -24 -10 -29 -9 -4 2
-13 -1 -20 -6 -18 -14 -46 -22 -46 -14 0 5 18 18 40 31 22 12 40 29 40 37 0 8
-5 12 -10 9 -6 -4 -8 -11 -5 -16 3 -5 -2 -6 -11 -2 -13 5 -15 3 -9 -7 5 -9 4
-11 -4 -6 -6 4 -14 1 -17 -7 -2 -7 -11 -14 -19 -14 -8 0 -14 1 -12 3 30 30 94
71 104 67 8 -3 13 -2 12 3 -2 14 0 24 7 24 3 0 2 -4 -1 -10z m-1012 -17 c-7
-2 -19 -2 -25 0 -7 3 -2 5 12 5 14 0 19 -2 13 -5z m-859 -18 c3 -10 -1 -15
-13 -15 -11 0 -22 -6 -25 -12 -3 -10 -1 25 3 40 3 9 30 -1 35 -13z m1001 -5
c-3 -5 -12 -10 -18 -10 -7 0 -6 4 3 10 19 12 23 12 15 0z m-1088 -32 c-3 -8
-6 -5 -6 6 -1 11 2 17 5 13 3 -3 4 -12 1 -19z m2023 8 c0 -2 -8 -10 -17 -17
-16 -13 -17 -12 -4 4 13 16 21 21 21 13z m-1910 -30 c0 -2 -9 -6 -20 -9 -11
-3 -18 -1 -14 4 5 9 34 13 34 5z m2545 -6 c-3 -5 -16 -15 -28 -21 -21 -10 -21
-9 2 10 25 23 36 27 26 11z m-715 -8 c0 -9 -92 -54 -98 -47 -2 2 18 15 45 29
56 29 53 28 53 18z m-155 -22 c-3 -5 -19 -11 -35 -15 -17 -4 -30 -11 -30 -16
0 -6 5 -7 10 -4 6 3 10 4 10 1 0 -13 -19 -14 -30 -1 -9 11 -4 17 27 33 36 19
59 20 48 2z m-1671 -2 c-3 -4 -9 -8 -15 -8 -5 0 -9 4 -9 8 0 5 7 9 15 9 8 0
12 -4 9 -9z m-554 -12 c0 -2 -7 -7 -16 -10 -8 -3 -12 -2 -9 4 6 10 25 14 25 6z
m3099 1 c-2 -1 -17 -13 -34 -27 -22 -18 -25 -20 -12 -4 9 11 15 23 12 25 -2 3
5 6 17 6 11 1 19 1 17 0z m-1039 -37 c0 -5 -2 -10 -4 -10 -3 0 -8 5 -11 10 -3
6 -1 10 4 10 6 0 11 -4 11 -10z m195 0 c-3 -5 -12 -10 -18 -10 -7 0 -25 -7
-41 -15 -41 -21 -43 -12 -4 14 34 21 74 29 63 11z m115 -10 c-6 -11 -15 -18
-20 -15 -4 3 -10 0 -12 -7 -3 -8 -9 -8 -24 0 -14 9 -15 12 -4 13 8 1 18 1 23
0 4 0 7 5 7 12 0 8 4 7 10 -3 8 -13 10 -12 10 3 0 9 5 17 10 17 7 0 7 -7 0
-20z m-240 -6 c0 -2 -15 -13 -32 -24 -39 -24 -30 -27 14 -4 16 9 27 11 24 5
-8 -13 -97 -53 -104 -46 -3 2 3 7 12 11 9 3 16 10 16 16 0 5 -6 6 -12 2 -9 -5
-9 -2 1 9 7 9 10 17 5 17 -11 0 18 20 29 20 5 0 5 -4 2 -10 -3 -6 1 -7 9 -4 9
3 13 10 10 15 -3 5 2 6 10 3 9 -3 16 -8 16 -10z m604 -8 c-3 -9 -12 -16 -20
-16 -11 0 -10 4 4 18 20 22 25 21 16 -2z m-2169 -16 c3 -6 -1 -7 -9 -4 -18 7
-21 14 -7 14 6 0 13 -4 16 -10z m-388 -15 c0 -8 -4 -12 -9 -9 -5 3 -6 10 -3
15 9 13 12 11 12 -6z m1808 5 c-3 -5 -16 -10 -28 -9 -20 1 -20 2 3 9 14 4 26
8 28 9 2 1 0 -3 -3 -9z m-105 -14 c0 -2 -7 -7 -16 -10 -8 -3 -12 -2 -9 4 6 10
25 14 25 6z m110 -31 c0 -8 -62 -37 -67 -31 -4 3 9 12 28 20 39 18 39 17 39
11z m-1730 -9 c0 -11 -19 -15 -25 -6 -3 5 1 10 9 10 9 0 16 -2 16 -4z m2757
-28 c-3 -8 -6 -5 -6 6 -1 11 2 17 5 13 3 -3 4 -12 1 -19z m-192 -8 c-3 -5 -12
-10 -18 -10 -7 0 -6 4 3 10 19 12 23 12 15 0z m-2075 -4 c0 -2 -7 -7 -16 -10
-8 -3 -12 -2 -9 4 6 10 25 14 25 6z m1247 -2 c-3 -3 -12 -4 -19 -1 -8 3 -5 6
6 6 11 1 17 -2 13 -5z m-1663 -20 c3 -8 2 -12 -4 -9 -6 3 -10 10 -10 16 0 14
7 11 14 -7z m146 6 c0 -5 -2 -10 -4 -10 -3 0 -8 5 -11 10 -3 6 -1 10 4 10 6 0
11 -4 11 -10z m1367 -16 c-3 -3 -12 -4 -19 -1 -8 3 -5 6 6 6 11 1 17 -2 13 -5z
m-1657 -19 c0 -1 -8 -5 -18 -7 -11 -3 -19 0 -19 7 0 7 8 10 19 7 10 -2 18 -6
18 -7z m-1430 -6 c0 -11 -27 -12 -34 -1 -2 4 4 9 15 9 10 1 19 -2 19 -8z m293
-91 c15 -6 26 -12 24 -15 -7 -6 -110 37 -127 53 -10 10 1 8 30 -6 25 -12 58
-26 73 -32z m1147 18 c0 -3 -4 -8 -10 -11 -5 -3 -10 -1 -10 4 0 6 5 11 10 11
6 0 10 -2 10 -4z m2945 -13 c-34 -19 -122 -47 -111 -36 8 9 115 50 131 51 6 1
-3 -6 -20 -15z m-2645 3 c0 -3 -4 -8 -10 -11 -5 -3 -10 -1 -10 4 0 6 5 11 10
11 6 0 10 -2 10 -4z m610 -14 c0 -4 -15 -16 -32 -26 -18 -9 -26 -11 -17 -4 9
7 14 19 12 26 -3 7 4 12 16 12 12 0 21 -4 21 -8z m2302 -43 c-4 -16 -42 -59
-53 -59 -15 0 -19 34 -5 55 16 24 63 27 58 4z m-4538 -5 c3 -8 11 -12 17 -8 7
4 10 2 7 -6 -6 -20 -37 -20 -48 0 -9 17 -4 30 11 30 4 0 10 -7 13 -16z m2157
-17 c-8 -8 -11 -7 -11 4 0 20 13 34 18 19 3 -7 -1 -17 -7 -23z m2259 -55 c0
-5 -12 -14 -27 -21 l-28 -11 24 20 c26 22 31 24 31 12z m-4300 -24 c0 -13 -32
-6 -37 9 -3 7 3 9 16 6 12 -3 21 -10 21 -15z m1903 -15 c-7 -2 -21 -2 -30 0
-10 3 -4 5 12 5 17 0 24 -2 18 -5z m-1862 -70 c65 -72 64 -84 -1 -18 -24 25
-40 45 -34 45 6 0 21 -12 35 -27z m4229 14 c0 -2 -10 -12 -22 -23 l-23 -19 19
23 c18 21 26 27 26 19z m-50 -41 c0 -2 -8 -10 -17 -17 -16 -13 -17 -12 -4 4
13 16 21 21 21 13z m-4215 -26 c4 -6 -2 -9 -14 -7 -29 4 -39 17 -13 17 11 0
24 -5 27 -10z m2062 -46 c-3 -3 -12 -4 -19 -1 -8 3 -5 6 6 6 11 1 17 -2 13 -5z
m-2267 -24 c0 -5 -8 -10 -17 -10 -15 0 -16 2 -3 10 19 12 20 12 20 0z m93 -60
c-15 -27 -31 -50 -35 -50 -8 0 25 64 44 88 22 26 18 10 -9 -38z m-113 25 c0
-7 -34 -20 -75 -29 l-30 -7 25 21 c22 17 80 28 80 15z m213 -80 c-3 -9 -8 -14
-10 -11 -3 3 -2 9 2 15 9 16 15 13 8 -4z m662 -132 c-55 -6 -123 -7 -117 -1 9
9 80 14 112 8 20 -4 21 -5 5 -7z m-377 -44 c3 -12 2 -12 -6 0 -8 11 -10 11
-15 0 -4 -10 -6 -8 -6 4 -1 21 21 18 27 -4z m-562 -166 c-4 -4 -11 -1 -16 7
-16 25 -11 35 7 17 9 -9 13 -20 9 -24z m2331 15 c-3 -8 -6 -5 -6 6 -1 11 2 17
5 13 3 -3 4 -12 1 -19z m66 -48 c-3 -12 -8 -19 -11 -16 -5 6 5 36 12 36 2 0 2
-9 -1 -20z m-1914 -13 c-2 -1 -13 -9 -24 -17 -19 -14 -19 -14 -6 3 7 9 18 17
24 17 6 0 8 -1 6 -3z m-49 -31 c0 -2 -8 -10 -17 -17 -16 -13 -17 -12 -4 4 13
16 21 21 21 13z m-166 -245 c-6 -7 -54 41 -54 53 0 6 13 -2 29 -19 16 -16 27
-32 25 -34z"/>
<path d="M4645 7041 c-3 -5 -1 -12 5 -16 5 -3 10 1 10 9 0 18 -6 21 -15 7z"/>
<path d="M4139 6953 c-13 -16 -12 -17 4 -4 9 7 17 15 17 17 0 8 -8 3 -21 -13z"/>
<path d="M3729 6793 c-13 -16 -12 -17 4 -4 16 13 21 21 13 21 -2 0 -10 -8 -17
-17z"/>
<path d="M6240 6990 c-9 -6 -10 -10 -3 -10 6 0 15 5 18 10 8 12 4 12 -15 0z"/>
<path d="M4150 6096 c0 -2 7 -7 16 -10 8 -3 12 -2 9 4 -6 10 -25 14 -25 6z"/>
<path d="M2948 6103 c7 -3 16 -2 19 1 4 3 -2 6 -13 5 -11 0 -14 -3 -6 -6z"/>
<path d="M2920 6075 c-14 -8 -20 -14 -14 -15 5 0 19 7 30 15 24 18 16 19 -16
0z"/>
<path d="M5540 5750 c0 -5 5 -10 11 -10 5 0 7 5 4 10 -3 6 -8 10 -11 10 -2 0
-4 -4 -4 -10z"/>
<path d="M5870 4995 c0 -8 -6 -12 -12 -10 -7 3 -20 0 -28 -5 -13 -9 -13 -11 0
-19 16 -11 35 1 51 31 6 12 6 18 -1 18 -5 0 -10 -7 -10 -15z m-10 -19 c0 -3
-4 -8 -10 -11 -5 -3 -10 -1 -10 4 0 6 5 11 10 11 6 0 10 -2 10 -4z"/>
<path d="M5480 4846 c0 -8 5 -18 10 -21 6 -4 8 -11 5 -16 -12 -18 12 -8 31 13
10 13 12 18 4 11 -11 -8 -18 -8 -27 2 -6 7 -9 16 -6 19 4 3 1 6 -5 6 -7 0 -12
-6 -12 -14z"/>
<path d="M5124 4662 c-14 -23 -6 -98 12 -113 12 -10 14 -2 14 47 0 68 -10 92
-26 66z"/>
<path d="M5022 4579 c-15 -23 -10 -35 18 -42 23 -6 27 18 7 45 -12 15 -14 15
-25 -3z"/>
<path d="M5696 4565 c-9 -26 -7 -32 5 -12 6 10 9 21 6 23 -2 3 -7 -2 -11 -11z"/>
<path d="M5396 4545 c-11 -31 -7 -97 7 -93 15 5 22 72 9 94 -8 15 -10 15 -16
-1z"/>
<path d="M5626 4488 c-17 -10 -22 -28 -7 -28 5 0 19 8 31 18 17 14 19 19 7 19
-8 0 -23 -4 -31 -9z"/>
<path d="M5192 4400 c0 -19 2 -27 5 -17 2 9 2 25 0 35 -3 9 -5 1 -5 -18z"/>
<path d="M5010 4315 c-7 -8 -8 -15 -2 -15 5 0 15 7 22 15 7 8 8 15 2 15 -5 0
-15 -7 -22 -15z"/>
<path d="M4397 5320 c-3 -11 -1 -20 4 -20 5 0 9 9 9 20 0 11 -2 20 -4 20 -2 0
-6 -9 -9 -20z"/>
<path d="M6073 5265 c0 -7 6 -11 14 -8 7 3 13 6 13 8 0 2 -6 5 -13 8 -8 3 -14
-1 -14 -8z"/>
<path d="M3610 5186 c0 -9 40 -13 46 -5 3 5 -6 9 -20 9 -14 0 -26 -2 -26 -4z"/>
<path d="M3393 5095 c-10 -22 -9 -24 5 -16 8 5 17 16 18 25 3 24 -10 19 -23
-9z"/>
<path d="M3465 3999 c-10 -15 3 -25 16 -12 7 7 7 13 1 17 -6 3 -14 1 -17 -5z"/>
<path d="M6130 3909 c0 -5 5 -7 10 -4 6 3 10 8 10 11 0 2 -4 4 -10 4 -5 0 -10
-5 -10 -11z"/>
<path d="M8217 3733 c-4 -3 -7 -11 -7 -17 0 -6 5 -5 12 2 6 6 9 14 7 17 -3 3
-9 2 -12 -2z"/>
<path d="M8196 3663 c-6 -14 -5 -15 5 -6 7 7 10 15 7 18 -3 3 -9 -2 -12 -12z"/>
<path d="M8079 3513 c-1 -5 -1 -11 0 -15 0 -5 -4 -8 -11 -8 -6 0 -9 -2 -6 -5
9 -9 38 7 38 21 0 14 -19 20 -21 7z"/>
<path d="M8055 3459 c-11 -16 -1 -19 13 -3 7 8 8 14 3 14 -5 0 -13 -5 -16 -11z"/>
<path d="M7553 3384 c-13 -6 -6 -34 8 -34 4 0 5 8 2 17 -5 13 -2 15 11 10 10
-4 15 -3 11 3 -7 11 -13 11 -32 4z"/>
<path d="M7576 3333 c-6 -14 -5 -15 5 -6 7 7 10 15 7 18 -3 3 -9 -2 -12 -12z"/>
<path d="M7465 2840 c-16 -17 -16 -20 -3 -15 9 4 19 13 22 21 7 19 2 18 -19
-6z"/>
<path d="M7416 2829 c-13 -8 -15 -14 -7 -19 8 -4 -13 -30 -58 -73 -39 -36 -63
-63 -54 -60 12 5 14 3 9 -8 -4 -8 9 4 30 26 20 22 33 33 29 25 -5 -10 -1 -8
13 4 24 21 29 31 10 20 -7 -5 2 7 21 26 19 20 29 36 22 38 -9 3 -9 7 0 18 14
17 10 17 -15 3z"/>
<path d="M7278 2633 c-15 -10 -30 -23 -33 -31 -2 -7 11 -1 30 14 19 14 35 28
35 30 0 6 -3 5 -32 -13z"/>
<path d="M6590 3560 c0 -5 5 -10 10 -10 6 0 10 5 10 10 0 6 -4 10 -10 10 -5 0
-10 -4 -10 -10z"/>
<path d="M4817 3435 c3 -8 9 -12 14 -9 12 7 11 11 -5 17 -10 4 -13 1 -9 -8z"/>
<path d="M5666 3273 c-6 -14 -5 -15 5 -6 7 7 10 15 7 18 -3 3 -9 -2 -12 -12z"/>
<path d="M6541 3007 c-13 -21 -12 -21 5 -5 10 10 16 20 13 22 -3 3 -11 -5 -18
-17z"/>
<path d="M5535 3020 c-3 -5 -1 -10 4 -10 6 0 11 5 11 10 0 6 -2 10 -4 10 -3 0
-8 -4 -11 -10z"/>
<path d="M3324 8264 c-18 -14 -18 -15 4 -4 12 6 22 13 22 15 0 8 -5 6 -26 -11z"/>
<path d="M5591 8098 c-12 -29 -43 -180 -37 -185 2 -2 13 18 26 44 12 26 28 55
35 63 8 8 14 17 14 20 0 3 3 13 6 22 18 46 -26 81 -44 36z"/>
<path d="M2869 7923 l-24 -28 28 24 c25 23 32 31 24 31 -2 0 -14 -12 -28 -27z"/>
</g>
</svg>
